<svg height="816" viewBox="0 0 792 612" width="1056" xmlns="http://www.w3.org/2000/svg" xmlns:xlink="http://www.w3.org/1999/xlink"><clipPath id="a"><path d="m40 26h600v73h-600zm0 0"/></clipPath><clipPath id="b"><path d="m41.043 26.61 598.5.722-.086 71.25-598.5-.723zm0 0"/></clipPath><clipPath id="c"><path d="m0 59h711v41h-711zm0 0"/></clipPath><clipPath id="d"><path d="m-38.055 59.285 748.5.903-.05 39-748.497-.903zm0 0"/></clipPath><clipPath id="e"><path d="m0 0h792v42h-792zm0 0"/></clipPath><clipPath id="f"><path d="m-.625-1.227 792.746.957-.047 42-792.75-.957zm0 0"/></clipPath><clipPath id="g"><path d="m48 70h514v65h-514zm0 0"/></clipPath><clipPath id="h"><path d="m48.137 70.441 513.75.618-.078 63.75-513.75-.618zm0 0"/></clipPath><clipPath id="i"><path d="m28 83h566v31h-566zm0 0"/></clipPath><clipPath id="j"><path d="m28.273 83.547 564.75.683-.035 29.25-564.75-.683zm0 0"/></clipPath><clipPath id="k"><path d="m75 126h565v17h-565zm0 0"/></clipPath><clipPath id="l"><path d="m75.035 126.336 564.746.684-.015 15.75-564.75-.684zm0 0"/></clipPath><clipPath id="m"><path d="m166 160h566v12h-566zm0 0"/></clipPath><clipPath id="n"><path d="m166.84 160.363 564.75.68-.012 10.5-564.75-.68zm0 0"/></clipPath><clipPath id="o"><path d="m60 137h566v18h-566zm0 0"/></clipPath><clipPath id="p"><path d="m60.379 137.742 564.746.684-.016 15.75-564.75-.684zm0 0"/></clipPath><clipPath id="q"><path d="m73 511h62v20h-62zm0 0"/></clipPath><clipPath id="r"><path d="m73.941 526.586 59.48-15.172.895 3.5-59.48 15.172zm0 0"/></clipPath><clipPath id="s"><path d="m94 523h40v13h-40zm0 0"/></clipPath><clipPath id="t"><path d="m94.422 532.828 37.988-9.691.766 3-37.988 9.687zm0 0"/></clipPath><clipPath id="u"><path d="m70 474h98v29h-98zm0 0"/></clipPath><clipPath id="v"><path d="m70.617 499.375 96.469-24.61.766 3-96.47 24.61zm0 0"/></clipPath><clipPath id="w"><path d="m94 491h55v20h-55zm0 0"/></clipPath><clipPath id="x"><path d="m94.422 505.332 52.984-13.516 1.274 5-52.985 13.516zm0 0"/></clipPath><clipPath id="y"><path d="m87 503h98v29h-98zm0 0"/></clipPath><clipPath id="z"><path d="m87.563 528.148 96.468-24.605.762 2.996-96.465 24.61zm0 0"/></clipPath><clipPath id="A"><path d="m87 468h124v35h-124zm0 0"/></clipPath><clipPath id="B"><path d="m87.563 500.008 121.957-31.113.511 2-121.96 31.109zm0 0"/></clipPath><clipPath id="C"><path d="m53 493h39v19h-39zm0 0"/></clipPath><clipPath id="D"><path d="m2.25 509.238 124.691-43.484 32.102 92.058-124.688 43.485zm0 0"/></clipPath><clipPath id="E"><path d="m2.25 509.238 124.691-43.484 32.102 92.058-124.688 43.485zm0 0"/></clipPath><clipPath id="F"><path d="m2.25 509.238 124.691-43.484 32.102 92.058-124.688 43.485zm0 0"/></clipPath><clipPath id="G"><path d="m46 499h42v43h-42zm0 0"/></clipPath><clipPath id="H"><path d="m2.25 509.238 124.691-43.484 32.102 92.058-124.688 43.485zm0 0"/></clipPath><clipPath id="I"><path d="m2.25 509.238 124.691-43.484 32.102 92.058-124.688 43.485zm0 0"/></clipPath><clipPath id="J"><path d="m2.25 509.238 124.691-43.484 32.102 92.058-124.688 43.485zm0 0"/></clipPath><clipPath id="K"><path d="m84 498h20v27h-20zm0 0"/></clipPath><clipPath id="L"><path d="m2.25 509.238 124.691-43.484 32.102 92.058-124.688 43.485zm0 0"/></clipPath><clipPath id="M"><path d="m2.25 509.238 124.691-43.484 32.102 92.058-124.688 43.485zm0 0"/></clipPath><clipPath id="N"><path d="m2.25 509.238 124.691-43.484 32.102 92.058-124.688 43.485zm0 0"/></clipPath><clipPath id="O"><path d="m14 532h40v12h-40zm0 0"/></clipPath><clipPath id="P"><path d="m2.25 509.238 124.691-43.484 32.102 92.058-124.688 43.485zm0 0"/></clipPath><clipPath id="Q"><path d="m2.25 509.238 124.691-43.484 32.102 92.058-124.688 43.485zm0 0"/></clipPath><clipPath id="R"><path d="m2.25 509.238 124.691-43.484 32.102 92.058-124.688 43.485zm0 0"/></clipPath><clipPath id="S"><path d="m43 493h28v43h-28zm0 0"/></clipPath><clipPath id="T"><path d="m2.25 509.238 124.691-43.484 32.102 92.058-124.688 43.485zm0 0"/></clipPath><clipPath id="U"><path d="m2.25 509.238 124.691-43.484 32.102 92.058-124.688 43.485zm0 0"/></clipPath><clipPath id="V"><path d="m2.25 509.238 124.691-43.484 32.102 92.058-124.688 43.485zm0 0"/></clipPath><clipPath id="W"><path d="m83 524h47v29h-47zm0 0"/></clipPath><clipPath id="X"><path d="m2.25 509.238 124.691-43.484 32.102 92.058-124.688 43.485zm0 0"/></clipPath><clipPath id="Y"><path d="m2.25 509.238 124.691-43.484 32.102 92.058-124.688 43.485zm0 0"/></clipPath><clipPath id="Z"><path d="m2.25 509.238 124.691-43.484 32.102 92.058-124.688 43.485zm0 0"/></clipPath><clipPath id="aa"><path d="m118 524h30v18h-30zm0 0"/></clipPath><clipPath id="ab"><path d="m2.25 509.238 124.691-43.484 32.102 92.058-124.688 43.485zm0 0"/></clipPath><clipPath id="ac"><path d="m2.25 509.238 124.691-43.484 32.102 92.058-124.688 43.485zm0 0"/></clipPath><clipPath id="ad"><path d="m2.25 509.238 124.691-43.484 32.102 92.058-124.688 43.485zm0 0"/></clipPath><clipPath id="ae"><path d="m56 524h49v36h-49zm0 0"/></clipPath><clipPath id="af"><path d="m2.25 509.238 124.691-43.484 32.102 92.058-124.688 43.485zm0 0"/></clipPath><clipPath id="ag"><path d="m2.25 509.238 124.691-43.484 32.102 92.058-124.688 43.485zm0 0"/></clipPath><clipPath id="ah"><path d="m2.25 509.238 124.691-43.484 32.102 92.058-124.688 43.485zm0 0"/></clipPath><clipPath id="ai"><path d="m40 493h19v17h-19zm0 0"/></clipPath><clipPath id="aj"><path d="m2.25 509.238 124.691-43.484 32.102 92.058-124.688 43.485zm0 0"/></clipPath><clipPath id="ak"><path d="m2.25 509.238 124.691-43.484 32.102 92.058-124.688 43.485zm0 0"/></clipPath><clipPath id="al"><path d="m2.25 509.238 124.691-43.484 32.102 92.058-124.688 43.485zm0 0"/></clipPath><clipPath id="am"><path d="m39 530h35v70h-35zm0 0"/></clipPath><clipPath id="an"><path d="m2.25 509.238 124.691-43.484 32.102 92.058-124.688 43.485zm0 0"/></clipPath><clipPath id="ao"><path d="m2.25 509.238 124.691-43.484 32.102 92.058-124.688 43.485zm0 0"/></clipPath><clipPath id="ap"><path d="m2.25 509.238 124.691-43.484 32.102 92.058-124.688 43.485zm0 0"/></clipPath><clipPath id="aq"><path d="m372 478h420v60h-420zm0 0"/></clipPath><clipPath id="ar"><path d="m372.395 479.328 553.5-.523.054 58.5-553.5.523zm0 0"/></clipPath><clipPath id="as"><path d="m216 492h562v68h-562zm0 0"/></clipPath><clipPath id="at"><path d="m216.164 493.152 561-.53.063 66.75-561 .53zm0 0"/></clipPath><clipPath id="au"><path d="m127 532h562v40h-562zm0 0"/></clipPath><clipPath id="av"><path d="m127.602 533.102 560.996-.532.039 38.25-561 .532zm0 0"/></clipPath><clipPath id="aw"><path d="m298 509h482v81h-482zm0 0"/></clipPath><clipPath id="ax"><path d="m298.621 509.691 480.75-.457.074 80.25-480.75.457zm0 0"/></clipPath><clipPath id="ay"><path d="m280 542h512v29h-512zm0 0"/></clipPath><clipPath id="az"><path d="m280.082 543.02 528-.5.027 27.75-528 .5zm0 0"/></clipPath><clipPath id="aA"><path d="m264 601h528v11h-528zm0 0"/></clipPath><clipPath id="aB"><path d="m264.375 602.164 528.746-.5.016 14.25-528.75.5zm0 0"/></clipPath><clipPath id="aC"><path d="m386 518h406v10h-406zm0 0"/></clipPath><clipPath id="aD"><path d="m386.563 518.508 528-.5.007 9-528 .5zm0 0"/></clipPath><clipPath id="aE"><path d="m309 465h483v9h-483zm0 0"/></clipPath><clipPath id="aF"><path d="m309.816 466.297 528-.5.008 6.75-528 .5zm0 0"/></clipPath><clipPath id="aG"><path d="m613 115h11v13h-11zm0 0"/></clipPath><clipPath id="aH"><path d="m618.727 112.602 9.082 6.543-5.664 7.863-9.082-6.543zm0 0"/></clipPath><clipPath id="aI"><path d="m613.063 120.465 10.207-4.594-1.125 11.137zm0 0"/></clipPath><clipPath id="aJ"><path d="m257 575h11v12h-11zm0 0"/></clipPath><clipPath id="aK"><path d="m262.96 571.637 8.806 6.886-5.965 7.625-8.801-6.886zm0 0"/></clipPath><clipPath id="aL"><path d="m257 579.262 10.363-4.18-1.562 11.066zm0 0"/></clipPath><clipPath id="aM"><path d="m652 180h11v12h-11zm0 0"/></clipPath><clipPath id="aN"><path d="m657.82 177.504 8.774 6.316-5.473 7.598-8.77-6.32zm0 0"/></clipPath><clipPath id="aO"><path d="m652.352 185.098 9.855-4.434-1.086 10.754zm0 0"/></clipPath><clipPath id="aP"><path d="m662 100h12v12h-12zm0 0"/></clipPath><clipPath id="aQ"><path d="m664.84 99.398 10.95 2.329-2.017 9.48-10.949-2.324zm0 0"/></clipPath><clipPath id="aR"><path d="m662.824 108.883 7.489-8.32 3.46 10.644zm0 0"/></clipPath><clipPath id="aS"><path d="m247 541h11v12h-11zm0 0"/></clipPath><clipPath id="aT"><path d="m242.355 544.715 9.442-6.008 5.207 8.176-9.445 6.012zm0 0"/></clipPath><clipPath id="aU"><path d="m247.559 552.895-.48-11.184 9.925 5.172zm0 0"/></clipPath><clipPath id="aV"><path d="m250 185h12v11h-12zm0 0"/></clipPath><clipPath id="aW"><path d="m252.633 184.117 10.949 2.324-2.012 9.485-10.949-2.328zm0 0"/></clipPath><clipPath id="aX"><path d="m250.621 193.598 7.488-8.317 3.461 10.645zm0 0"/></clipPath><clipPath id="aY"><path d="m263 452h17v16h-17zm0 0"/></clipPath><clipPath id="aZ"><path d="m284.063 461.148-9.618 13.106-11.351-8.328 9.617-13.106zm0 0"/></clipPath><clipPath id="a0"><path d="m272.71 452.82 6.544 14.88-16.16-1.774zm0 0"/></clipPath><clipPath id="a1"><path d="m25 128h11v12h-11zm0 0"/></clipPath><clipPath id="a2"><path d="m29.45 142.441-8.36-6.851 5.933-7.238 8.36 6.851zm0 0"/></clipPath><clipPath id="a3"><path d="m35.383 135.203-10.113 3.813 1.753-10.664zm0 0"/></clipPath><clipPath id="a4"><path d="m349 441h15v17h-15zm0 0"/></clipPath><clipPath id="a5"><path d="m343.129 444.555 14.66-7.024 6.082 12.7-14.66 7.023zm0 0"/></clipPath><clipPath id="a6"><path d="m349.21 457.254 1.247-16.211 13.414 9.187zm0 0"/></clipPath><g fill="#fff"><path d="m-79.2-61.2h950.4v734.4h-950.4z"/><path d="m-79.2-61.2h950.4v734.4h-950.4z"/><path d="m-79.2-61.2h950.4v734.4h-950.4z"/></g><g clip-path="url(#a)"><g clip-path="url(#b)"><path d="m41.043 26.61 598.5.722-.086 71.25-598.5-.723zm0 0" fill="#0082c8"/></g></g><g clip-path="url(#c)"><g clip-path="url(#d)"><path d="m-38.055 59.285 748.5.903-.05 39-748.497-.903zm0 0" fill="#8b5aa5"/></g></g><g clip-path="url(#e)"><g clip-path="url(#f)"><path d="m-.625-1.227 792.746.957-.05 42-792.747-.957zm0 0" fill="#57c5c7"/></g></g><g clip-path="url(#g)"><g clip-path="url(#h)"><path d="m48.137 70.441 513.75.618-.078 63.75-513.75-.618zm0 0" fill="#e45455"/></g></g><g clip-path="url(#i)"><g clip-path="url(#j)"><path d="m28.273 83.547 564.75.683-.035 29.25-564.75-.683zm0 0" fill="#f4bb27"/></g></g><g clip-path="url(#k)"><g clip-path="url(#l)"><path d="m75.035 126.336 564.746.684-.015 15.75-564.75-.684zm0 0" fill="#fff"/></g></g><g clip-path="url(#m)"><g clip-path="url(#n)"><path d="m166.84 160.363 564.75.68-.012 10.5-564.75-.68zm0 0" fill="#57c5c7"/></g></g><g clip-path="url(#o)"><g clip-path="url(#p)"><path d="m60.379 137.742 564.746.684-.016 15.75-564.75-.684zm0 0" fill="#8b5aa5"/></g></g><g clip-path="url(#q)"><g clip-path="url(#r)"><path d="m73.941 526.586 59.48-15.172.895 3.5-59.48 15.172zm0 0" fill="#e45455"/></g></g><g clip-path="url(#s)"><g clip-path="url(#t)"><path d="m94.422 532.828 37.988-9.691.766 3-37.988 9.687zm0 0" fill="#57c5c7"/></g></g><g clip-path="url(#u)"><g clip-path="url(#v)"><path d="m70.617 499.375 96.469-24.61.766 3-96.47 24.61zm0 0" fill="#57c5c7"/></g></g><g clip-path="url(#w)"><g clip-path="url(#x)"><path d="m94.422 505.332 52.984-13.516 1.274 5-52.985 13.516zm0 0" fill="#f4bb27"/></g></g><g clip-path="url(#y)"><g clip-path="url(#z)"><path d="m87.563 528.148 96.468-24.605.762 2.996-96.465 24.61zm0 0" fill="#8b5aa5"/></g></g><g clip-path="url(#A)"><g clip-path="url(#B)"><path d="m87.563 500.008 121.957-31.113.511 2-121.96 31.109zm0 0" fill="#0082c8"/></g></g><g clip-path="url(#C)"><g clip-path="url(#D)"><g clip-path="url(#E)"><g clip-path="url(#F)"><path d="m91.648 507.992-7.234-9.555-13.762-4.96-16.675 18.351zm0 0" fill="#3fb1e5"/></g></g></g></g><g clip-path="url(#G)"><g clip-path="url(#H)"><g clip-path="url(#I)"><g clip-path="url(#J)"><path d="m53.977 511.828-7.43 8.176 40.976 21.848-4.312-17.426-16.23-24.465zm0 0" fill="#188bcc"/></g></g></g></g><g clip-path="url(#K)"><g clip-path="url(#L)"><g clip-path="url(#M)"><g clip-path="url(#N)"><path d="m84.414 498.438 18.637 26.097-4.274-20.922zm0 0" fill="#188bcc"/></g></g></g></g><g clip-path="url(#O)"><g clip-path="url(#P)"><g clip-path="url(#Q)"><g clip-path="url(#R)"><path d="m14.59 543.754 33.758-.32 4.836-10.836zm0 0" fill="#f69225"/></g></g></g></g><g clip-path="url(#S)"><g clip-path="url(#T)"><g clip-path="url(#U)"><g clip-path="url(#V)"><path d="m46.586 520.012-2.945 15.43 9.543-2.844 17.468-39.121zm0 0" fill="#ee5630"/></g></g></g></g><g clip-path="url(#W)"><g clip-path="url(#X)"><g clip-path="url(#Y)"><g clip-path="url(#Z)"><path d="m83.21 524.426 4.313 17.426 30.372 10.773 12.101-11.367zm0 0" fill="#ee5630"/></g></g></g></g><g clip-path="url(#aa)"><g clip-path="url(#ab)"><g clip-path="url(#ac)"><g clip-path="url(#ad)"><path d="m118.098 536.977 11.898 4.28 17.328-16.273zm0 0" fill="#f69225"/></g></g></g></g><g clip-path="url(#ae)"><g clip-path="url(#af)"><g clip-path="url(#ag)"><g clip-path="url(#ah)"><path d="m104.66 532.18-21.45-7.754-9.651 6.43-16.957 28.449zm0 0" fill="#7bc245"/></g></g></g></g><g clip-path="url(#ai)"><g clip-path="url(#aj)"><g clip-path="url(#ak)"><g clip-path="url(#al)"><path d="m58.414 503.66-4.969 5.574-10.726-.218-2-9.473 6.715-6.063zm0 0" fill="#3fb1e5"/></g></g></g></g><g clip-path="url(#am)"><g clip-path="url(#an)"><g clip-path="url(#ao)"><g clip-path="url(#ap)"><path d="m56.54 559.348.062-.043 16.957-28.45-28.864 19.805-5.082 48.836zm0 0" fill="#b8d537"/></g></g></g></g><g clip-path="url(#aq)"><g clip-path="url(#ar)"><path d="m372.395 479.328 553.5-.523.054 58.5-553.5.523zm0 0" fill="#f4bb27"/></g></g><g clip-path="url(#as)"><g clip-path="url(#at)"><path d="m216.164 493.152 561-.53.063 66.75-561 .53zm0 0" fill="#0082c8"/></g></g><g clip-path="url(#au)"><g clip-path="url(#av)"><path d="m127.602 533.102 560.996-.532.039 38.25-561 .532zm0 0" fill="#fff"/></g></g><g clip-path="url(#aw)"><g clip-path="url(#ax)"><path d="m298.621 509.691 480.75-.457.074 80.25-480.75.457zm0 0" fill="#e45455"/></g></g><g clip-path="url(#ay)"><g clip-path="url(#az)"><path d="m280.082 543.02 528-.5.027 27.75-528 .5zm0 0" fill="#f4bb27"/></g></g><g clip-path="url(#aA)"><g clip-path="url(#aB)"><path d="m264.375 602.164 528.746-.5.016 14.25-528.75.5zm0 0" fill="#8b5aa5"/></g></g><g clip-path="url(#aC)"><g clip-path="url(#aD)"><path d="m386.563 518.508 528-.5.007 9-528 .5zm0 0" fill="#57c5c7"/></g></g><g clip-path="url(#aE)"><g clip-path="url(#aF)"><path d="m309.816 466.297 528-.5.008 6.75-528 .5zm0 0" fill="#57c5c7"/></g></g><path d="m84.004 249.17c.007-1.843-.29-3.085-.891-3.734-.606-.644-1.418-.969-2.438-.969-1.023 0-1.836.31-2.437.922-.606.606-.914 1.653-.922 3.141v4.39l-6.11-.015v-3.984c.008-3.32.829-5.868 2.454-7.641 1.625-1.781 4.02-2.672 7.187-2.672 3.164 0 5.563.899 7.188 2.688 1.625 1.78 2.43 4.336 2.422 7.656 0 2.148-.313 4.094-.938 5.844a21.056 21.056 0 0 1 -2.39 4.75 34.755 34.755 0 0 1 -3.11 3.953 177.105 177.105 0 0 0 -3.11 3.453c-.96 1.094-1.75 2.164-2.374 3.203-.625 1.031-.938 2.117-.938 3.25-.011.398 0 .687.032.875l12.218.016v5.875l-18.672-.032v-5.047c.008-2 .329-3.757.954-5.28a18.247 18.247 0 0 1 2.375-4.188 35.231 35.231 0 0 1 3.093-3.578 37.74 37.74 0 0 0 3.094-3.547 18.45 18.45 0 0 0 2.375-4.11c.625-1.488.938-3.226.938-5.218zm16.363 21.56c0 1.492.297 2.539.89 3.14.602.606 1.415.907 2.438.907 1.008 0 1.82-.301 2.438-.907.613-.601.921-1.648.921-3.14l.016-22.172c.008-1.488-.293-2.535-.906-3.14-.606-.614-1.414-.923-2.422-.923-1.023 0-1.836.31-2.438.922-.605.606-.914 1.653-.921 3.141zm-6.453-21.781c.008-3.32.851-5.868 2.531-7.641 1.688-1.781 4.117-2.672 7.297-2.672 3.164 0 5.586.899 7.266 2.688 1.687 1.78 2.523 4.336 2.515 7.656l-.015 21.36c-.012 3.323-.86 5.874-2.547 7.655-1.68 1.774-4.102 2.657-7.266 2.657-3.18 0-5.61-.89-7.297-2.672-1.68-1.79-2.512-4.348-2.5-7.672zm36.566.278c.008-1.844-.289-3.086-.89-3.735-.606-.644-1.418-.969-2.438-.969-1.023 0-1.836.309-2.437.922-.606.606-.914 1.653-.922 3.14v4.392l-6.11-.016v-3.984c.008-3.32.829-5.868 2.454-7.641 1.625-1.781 4.02-2.672 7.187-2.672 3.164 0 5.563.899 7.188 2.688 1.625 1.78 2.43 4.336 2.422 7.656 0 2.148-.313 4.094-.938 5.844a21.056 21.056 0 0 1 -2.39 4.75 34.755 34.755 0 0 1 -3.11 3.953 177.105 177.105 0 0 0 -3.11 3.453c-.96 1.094-1.75 2.164-2.374 3.203-.625 1.031-.938 2.117-.938 3.25-.012.398 0 .687.031.875l12.22.016v5.875l-18.673-.032v-5.047c.008-2 .328-3.757.953-5.28a18.247 18.247 0 0 1 2.375-4.188 35.231 35.231 0 0 1 3.094-3.578 37.74 37.74 0 0 0 3.094-3.547 18.45 18.45 0 0 0 2.375-4.11c.625-1.488.937-3.226.937-5.218zm22.895.028c.008-1.844-.293-3.086-.906-3.735-.606-.644-1.418-.969-2.438-.969-1.011 0-1.824.309-2.437.922-.606.606-.914 1.653-.922 3.14v2.642l-6.094-.016v-2.234c.008-3.32.82-5.868 2.438-7.641 1.625-1.781 4.023-2.672 7.203-2.672 3.164 0 5.562.898 7.187 2.688 1.625 1.78 2.43 4.335 2.422 7.656v1.047c0 4.386-1.512 7.199-4.531 8.437 1.644.711 2.805 1.805 3.484 3.281.688 1.47 1.032 3.258 1.032 5.36v3.234c-.012 3.324-.829 5.875-2.454 7.656-1.625 1.774-4.023 2.657-7.187 2.657-3.18 0-5.578-.89-7.203-2.672-1.617-1.79-2.418-4.348-2.406-7.672v-3.406l6.093.015v3.813c0 1.492.301 2.539.907 3.14.601.606 1.41.907 2.421.907 1.02 0 1.836-.313 2.454-.938.613-.625.921-1.851.921-3.687v-3.235c0-1.914-.335-3.265-1-4.047-.668-.78-1.746-1.171-3.234-1.171h-2.172l.016-5.875h2.531c1.207 0 2.156-.313 2.844-.938.687-.625 1.031-1.758 1.031-3.406zm18.022-10.071 19.953.031v5.86l-6.75-.016-.047 35.219h-6.453l.047-35.219-6.75-.016zm41.453 25.822v5.453c-.011 3.324-.828 5.875-2.453 7.657-1.617 1.773-4.011 2.656-7.187 2.656-3.168 0-5.563-.89-7.188-2.672-1.625-1.79-2.433-4.348-2.422-7.672l.016-21.36c.008-3.32.828-5.867 2.453-7.64 1.625-1.781 4.02-2.672 7.188-2.672 3.176 0 5.57.899 7.187 2.688 1.625 1.78 2.43 4.336 2.422 7.656v3.984l-6.094-.015v-4.391c.008-1.488-.293-2.535-.906-3.14-.605-.614-1.414-.922-2.422-.922-1.023 0-1.836.308-2.437.921-.606.606-.914 1.653-.922 3.141l-.016 22.172c0 1.492.297 2.531.89 3.125.602.586 1.415.875 2.438.875 1.008 0 1.82-.29 2.438-.875.613-.594.922-1.633.922-3.125v-5.86zm3.136-15.91c.008-3.32.805-5.875 2.391-7.656 1.582-1.782 3.957-2.664 7.125-2.657 3.164 0 5.54.899 7.125 2.688 1.594 1.781 2.383 4.336 2.375 7.656v1.281l-6.11-.015v-1.688c.009-1.488-.273-2.535-.843-3.14-.563-.614-1.356-.922-2.375-.922-1.012 0-1.805.308-2.375.922-.563.605-.852 1.652-.86 3.14 0 1.407.313 2.649.938 3.719a15.488 15.488 0 0 0 2.344 3.047c.937.96 1.941 1.918 3.015 2.875a27.646 27.646 0 0 1 3.016 3.14 15.958 15.958 0 0 1 2.344 3.891c.625 1.45.937 3.153.937 5.11-.011 3.324-.828 5.875-2.453 7.656-1.617 1.773-4.012 2.656-7.187 2.656-3.168-.012-5.563-.906-7.188-2.687-1.625-1.782-2.433-4.332-2.422-7.657v-2.531l6.11.016v2.937c0 1.492.297 2.531.89 3.125.602.586 1.414.875 2.438.875 1.02 0 1.832-.289 2.437-.875.614-.594.922-1.633.922-3.125 0-1.406-.312-2.644-.937-3.719a15.462 15.462 0 0 0 -2.344-3.062 65.147 65.147 0 0 0 -3.016-2.875 30.59 30.59 0 0 1 -3.015-3.14 15.932 15.932 0 0 1 -2.344-3.876c-.625-1.445-.938-3.148-.938-5.11zm37.606 1.522-.031 29.75-5.813-.016.047-41.078 8.11.016 6.593 24.593.032-24.593 5.75.015-.047 41.078-6.625-.015zm25.761 6.014h8.875l-.016 5.86h-8.875l-.015 12.03 11.156.016v5.875l-17.61-.03.047-41.079 17.61.031v5.86l-11.156-.016zm29.47 1.901-2.39 21.89-8.86-.015-4.531-41.078 6.281.016 3.438 32.39 3.14-32.39 6.22.015 3.202 32.625 3.375-32.625h5.625l-4.625 41.078-8.562-.015zm33.837 8.332-8.124-27.484 6.75.015 4.906 18.72 4.953-18.72 6.156.016-8.187 27.453-.016 13.61h-6.453zm23.13 4.185c0 1.492.297 2.539.89 3.14.602.606 1.414.906 2.438.906 1.008 0 1.82-.3 2.437-.906.614-.601.922-1.648.922-3.14l.016-22.172c.008-1.489-.293-2.536-.906-3.141-.606-.613-1.414-.922-2.422-.922-1.024 0-1.836.309-2.438.922-.605.605-.914 1.652-.922 3.14zm-6.453-21.782c.007-3.32.851-5.867 2.53-7.64 1.688-1.782 4.118-2.672 7.298-2.672 3.164 0 5.586.898 7.265 2.687 1.688 1.781 2.524 4.336 2.516 7.656l-.016 21.36c-.011 3.324-.859 5.875-2.546 7.656-1.68 1.774-4.102 2.656-7.266 2.656-3.18 0-5.61-.89-7.297-2.672-1.68-1.789-2.512-4.347-2.5-7.671zm37.238 31.262c-.074-.269-.152-.519-.234-.75a7.366 7.366 0 0 1 -.203-.89 9.936 9.936 0 0 1 -.125-1.344c-.012-.55-.016-1.238-.016-2.062l.016-6.453c0-1.915-.336-3.266-1-4.047-.668-.782-1.747-1.172-3.235-1.172h-2.234l-.016 16.719-6.453-.016.047-41.078 9.75.015c3.363 0 5.797.79 7.297 2.36 1.508 1.562 2.258 3.933 2.25 7.11v3.218c0 4.23-1.406 7-4.219 8.312 1.625.68 2.738 1.774 3.344 3.282.613 1.511.922 3.34.922 5.484l-.016 6.344c0 1.012.035 1.902.11 2.672.081.761.28 1.53.593 2.312zm-7-35.218-.016 12.625h2.532c1.207 0 2.156-.313 2.843-.938.688-.625 1.032-1.758 1.032-3.406v-4.047c.007-1.488-.25-2.566-.782-3.234-.53-.664-1.367-1-2.5-1zm25.559 18.872-2 3.75-.015 12.625-6.453-.016.046-41.078 6.454.016-.016 17.89 8.469-17.89 6.453.015-8.985 18.297 8.938 22.782-6.625-.016zm43.656 1.118v5.453c-.011 3.325-.828 5.875-2.453 7.657-1.617 1.773-4.011 2.656-7.187 2.656-3.168 0-5.563-.89-7.188-2.672-1.625-1.789-2.433-4.348-2.421-7.672l.015-21.36c.008-3.32.828-5.866 2.453-7.64 1.625-1.781 4.02-2.672 7.188-2.672 3.176 0 5.57.899 7.187 2.688 1.625 1.781 2.43 4.336 2.422 7.656v3.984l-6.094-.015v-4.39c.008-1.49-.293-2.536-.906-3.141-.605-.614-1.414-.922-2.422-.922-1.023 0-1.836.308-2.437.922-.606.605-.914 1.652-.922 3.14l-.016 22.172c0 1.492.297 2.531.89 3.125.602.586 1.415.875 2.438.875 1.008 0 1.82-.289 2.438-.875.613-.594.922-1.633.922-3.125v-5.86zm3.965-25.769 6.453.015-.047 41.078-6.453-.015zm9.275.013 19.953.031v5.86l-6.75-.016-.047 35.219h-6.453l.046-35.219-6.75-.016zm28.781 27.51-8.125-27.485 6.75.016 4.906 18.719 4.954-18.72 6.156.017-8.188 27.453-.015 13.609h-6.453zm39.959 1.742 4.438-29.157h8.984l-.047 41.079h-6.109l.031-29.47-4.484 29.454h-6.11l-4.78-29.047-.032 29.047-5.64-.016.046-41.078 8.985.016zm38.951 11.96-6.516-.016-1.093-7.453h-7.922l-1.125 7.453-5.938-.015 6.625-41.063h9.453zm-14.703-13.047h6.219l-3.079-20.766zm31.196 13.059c-.074-.269-.152-.519-.234-.75a7.366 7.366 0 0 1 -.203-.89 9.936 9.936 0 0 1 -.125-1.343c-.012-.551-.016-1.239-.016-2.063l.016-6.453c0-1.914-.336-3.266-1-4.047-.668-.781-1.746-1.172-3.235-1.172h-2.234l-.016 16.719-6.453-.016.047-41.078 9.75.016c3.363 0 5.797.789 7.297 2.36 1.508 1.562 2.258 3.933 2.25 7.109v3.218c0 4.23-1.406 7-4.219 8.313 1.625.68 2.739 1.773 3.344 3.281.613 1.512.922 3.34.922 5.484l-.016 6.344c0 1.012.035 1.903.11 2.672.082.762.28 1.531.593 2.313zm-7-35.218-.015 12.625h2.53c1.208 0 2.157-.312 2.845-.937.687-.625 1.03-1.758 1.03-3.407v-4.046c.009-1.489-.25-2.567-.78-3.235-.532-.664-1.368-1-2.5-1zm37.981 35.263-6.515-.016-1.094-7.453h-7.922l-1.125 7.453-5.937-.015 6.625-41.063h9.453zm-14.703-13.047h6.22l-3.079-20.766zm15.868-28.034 19.954.032v5.859l-6.75-.016-.047 35.22h-6.453l.047-35.22-6.75-.015zm29.173 41.119-6.453-.015.047-41.078 6.453.015-.016 17.61h7.344l.016-17.61 6.578.016-.047 41.078-6.578-.016.015-17.61h-7.343zm24.557-9.423c0 1.493.298 2.54.891 3.14.602.606 1.414.907 2.438.907 1.008 0 1.82-.3 2.437-.906.614-.602.922-1.648.922-3.14l.016-22.173c.008-1.488-.293-2.535-.906-3.14-.606-.613-1.415-.922-2.422-.922-1.024 0-1.836.309-2.438.922-.605.605-.914 1.652-.922 3.14zm-6.452-21.78c.007-3.321.851-5.868 2.53-7.642 1.688-1.78 4.118-2.671 7.298-2.671 3.164 0 5.586.898 7.265 2.687 1.688 1.781 2.524 4.336 2.516 7.656l-.016 21.36c-.011 3.324-.86 5.875-2.547 7.656-1.68 1.773-4.101 2.656-7.265 2.656-3.18 0-5.61-.89-7.297-2.672-1.68-1.789-2.512-4.347-2.5-7.672zm29.519 1.511-.031 29.75-5.813-.015.047-41.078 8.11.015 6.593 24.594.032-24.594 5.75.016-.047 41.078-6.625-.016zm0 0" fill="#309bd6"/><g clip-path="url(#aG)"><g clip-path="url(#aH)"><g clip-path="url(#aI)"><path d="m618.727 112.602 9.082 6.543-5.664 7.863-9.082-6.543zm0 0" fill="#57c5c7"/></g></g></g><g clip-path="url(#aJ)"><g clip-path="url(#aK)"><g clip-path="url(#aL)"><path d="m262.96 571.637 8.806 6.886-5.965 7.625-8.801-6.886zm0 0" fill="#8b5aa5"/></g></g></g><g clip-path="url(#aM)"><g clip-path="url(#aN)"><g clip-path="url(#aO)"><path d="m657.82 177.504 8.774 6.316-5.473 7.598-8.77-6.32zm0 0" fill="#e45455"/></g></g></g><g clip-path="url(#aP)"><g clip-path="url(#aQ)"><g clip-path="url(#aR)"><path d="m664.84 99.398 10.95 2.329-2.017 9.48-10.949-2.324zm0 0" fill="#f4bb27"/></g></g></g><g clip-path="url(#aS)"><g clip-path="url(#aT)"><g clip-path="url(#aU)"><path d="m242.355 544.715 9.442-6.008 5.207 8.176-9.445 6.012zm0 0" fill="#57c5c7"/></g></g></g><g clip-path="url(#aV)"><g clip-path="url(#aW)"><g clip-path="url(#aX)"><path d="m252.633 184.117 10.949 2.324-2.012 9.485-10.949-2.328zm0 0" fill="#8b5aa5"/></g></g></g><g clip-path="url(#aY)"><g clip-path="url(#aZ)"><g clip-path="url(#a0)"><path d="m284.063 461.148-9.618 13.106-11.351-8.328 9.617-13.106zm0 0" fill="#e45455"/></g></g></g><path d="m464.343 373.161c.539 0 .984-.054 1.328-.172.344-.125.625-.285.844-.484.226-.207.41-.445.547-.719.132-.27.25-.554.343-.86l1.891.017-.016 17.78-2.796-.015.015-13.562h-2.156zm15.517.019c.54 0 .985-.055 1.329-.172.344-.125.625-.285.844-.484.226-.207.41-.446.547-.719.132-.27.25-.555.343-.86l1.891.016-.016 17.781-2.797-.015.016-13.563h-2.156zm16.456 12.878v2.688h-2.687v-2.688zm10.06-1.394c0 .648.129 1.102.39 1.36.27.261.626.39 1.063.39.438 0 .785-.129 1.047-.39.27-.258.406-.712.406-1.36l.016-9.594c0-.644-.137-1.097-.406-1.36-.262-.269-.61-.405-1.047-.405-.438 0-.793.136-1.063.406-.261.262-.39.715-.39 1.36zm-2.781-9.422c0-1.437.363-2.539 1.094-3.312.726-.77 1.78-1.157 3.156-1.157 1.375.012 2.422.403 3.14 1.172.727.774 1.094 1.875 1.094 3.313l-.015 9.25c0 1.437-.368 2.543-1.094 3.312-.719.774-1.766 1.149-3.14 1.14-1.376 0-2.43-.382-3.157-1.155-.73-.77-1.094-1.875-1.094-3.313zm18.252 7.8v1.64c0 .65.13 1.102.39 1.36.259.25.614.375 1.063.375.438 0 .785-.125 1.047-.375.258-.258.39-.71.39-1.36l.016-3.906c0-.644-.132-1.097-.39-1.359-.262-.258-.61-.39-1.047-.39-.45 0-.805.132-1.063.39-.261.262-.39.715-.39 1.36v.53h-2.64l.5-10.312 7.374.016v2.531l-4.86-.016-.218 4.25c.52-.863 1.332-1.296 2.438-1.296 1.03.011 1.8.367 2.312 1.062.52.688.781 1.695.781 3.016l-.015 3.968c0 1.438-.356 2.543-1.063 3.313-.699.773-1.73 1.148-3.094 1.14-1.375 0-2.418-.382-3.125-1.156-.699-.77-1.046-1.875-1.046-3.312v-1.469zm15.69 3.066v2.687h-2.687v-2.687zm13.06-10.722c0-.79-.137-1.329-.406-1.61-.262-.281-.61-.422-1.047-.422-.438 0-.793.137-1.063.407-.261.261-.39.714-.39 1.359v1.906h-2.641v-1.734c0-1.438.348-2.54 1.047-3.313.707-.77 1.75-1.156 3.125-1.156 1.363.012 2.394.402 3.094 1.172.707.773 1.062 1.875 1.062 3.312 0 .93-.137 1.774-.406 2.532a9.787 9.787 0 0 1 -1.031 2.062 12.584 12.584 0 0 1 -1.344 1.703 51.667 51.667 0 0 0 -1.36 1.5c-.417.469-.761.93-1.03 1.375-.274.45-.407.918-.407 1.407 0 .168.008.293.031.375l5.281.015v2.547l-8.078-.016v-2.187c0-.863.133-1.625.407-2.281.27-.664.613-1.27 1.03-1.813a17.83 17.83 0 0 1 1.345-1.547 15.59 15.59 0 0 0 1.328-1.547 8.033 8.033 0 0 0 1.031-1.78c.281-.645.422-1.4.422-2.266zm15.362.018c0-.789-.137-1.328-.407-1.61-.261-.28-.609-.421-1.047-.421-.437 0-.793.137-1.062.406-.262.262-.39.715-.39 1.36v1.14h-2.641v-.969c0-1.437.347-2.539 1.047-3.312.707-.77 1.75-1.156 3.125-1.156 1.375.011 2.41.402 3.109 1.172.707.773 1.062 1.875 1.062 3.312v.453c0 1.899-.656 3.117-1.968 3.656.718.313 1.222.79 1.515 1.422.301.637.446 1.407.438 2.313v1.406c0 1.438-.356 2.543-1.063 3.313-.699.773-1.734 1.148-3.109 1.14-1.375 0-2.418-.383-3.125-1.156-.7-.77-1.047-1.875-1.047-3.313v-1.468h2.64v1.64c0 .649.13 1.102.391 1.36.27.261.625.39 1.063.39.437 0 .785-.132 1.047-.406.27-.27.406-.8.406-1.594v-1.39c.008-.832-.133-1.414-.422-1.75-.293-.344-.758-.516-1.39-.516h-.938v-2.547h1.078c.531 0 .941-.133 1.234-.406.301-.27.454-.758.454-1.469zm0 0" fill="#f5942e"/><path d="m197.51 336.773c0-2.289.375-4.234 1.125-5.828.75-1.602 1.992-2.785 3.734-3.547-3.23-1.363-4.84-4.43-4.828-9.203v-.828c0-3.625.86-6.367 2.578-8.235 1.727-1.875 4.36-2.812 7.89-2.812l8.048.016v6.39l-7.922-.015c-1.106 0-1.98.324-2.625.968-.637.637-.953 1.762-.953 3.375l-.016 2.75c0 1.793.367 3.028 1.11 3.703.75.68 1.784 1.016 3.109 1.016h3.062v-4.969l7.031.016v4.969h1.86v6.39h-1.86l-.03 14.703c0 1.106.038 2.075.124 2.907.082.824.297 1.664.64 2.515l-7.155-.015a10.318 10.318 0 0 1 -.391-1.375c-.086-.446-.168-1.16-.25-2.14-1.23 2.687-3.402 4.03-6.516 4.03-2.593-.011-4.543-.89-5.843-2.64-1.293-1.75-1.934-4.282-1.922-7.594zm7.015 3.984c0 1.618.328 2.758.985 3.422.656.657 1.535.985 2.64.985 1.07 0 1.926-.297 2.563-.89.644-.602 1.008-1.602 1.094-3l.015-10.36h-2.672c-1.625 0-2.804.43-3.531 1.28-.73.856-1.094 2.325-1.094 4.407zm46.195-14.507h9.078l-.015 6.391h-9.079l-.015 18.453-7.016-.015.047-44.719 18.578.031v6.39l-11.562-.015zm21.38 14.59c0 1.617.328 2.757.984 3.421.657.657 1.536.985 2.641.985 1.113 0 2-.328 2.656-.985.664-.664 1-1.804 1-3.421l.032-24.141c0-1.625-.329-2.766-.985-3.422-.656-.664-1.543-1-2.656-1-1.105 0-1.992.336-2.656 1-.657.656-.985 1.797-.985 3.422zm-6.984-23.72c0-3.612.91-6.382 2.734-8.312 1.832-1.937 4.473-2.906 7.922-2.906 3.457 0 6.098.977 7.922 2.922 1.832 1.937 2.75 4.715 2.75 8.328l-.031 23.25c-.012 3.625-.934 6.406-2.766 8.344-1.824 1.93-4.465 2.89-7.922 2.89-3.45 0-6.09-.968-7.922-2.906-1.824-1.945-2.73-4.734-2.719-8.36zm40.514 34.031c-.086-.3-.172-.578-.266-.828a6.462 6.462 0 0 1 -.219-.953 11.812 11.812 0 0 1 -.125-1.469 60.654 60.654 0 0 1 -.03-2.25l.015-7.015c0-2.094-.367-3.563-1.094-4.407-.719-.851-1.887-1.28-3.5-1.28h-2.437l-.016 18.202-7.016-.015.047-44.72 10.594.017c3.664 0 6.316.855 7.953 2.562 1.633 1.711 2.453 4.293 2.453 7.75l-.015 3.5c0 4.606-1.532 7.625-4.594 9.063 1.789.73 3.015 1.918 3.672 3.562.656 1.637.984 3.625.984 5.969l-.016 6.906c0 1.106.04 2.074.125 2.906.083.825.297 1.664.641 2.516zm-7.625-38.328-.016 13.735h2.75c1.32 0 2.352-.336 3.094-1.016.75-.688 1.125-1.922 1.125-3.703l.016-4.406c0-1.625-.293-2.797-.875-3.516-.575-.727-1.477-1.094-2.704-1.094zm25.663 12.484h9.64l-.015 6.39h-9.64l-.016 13.095 12.14.015v6.39l-19.156-.03.047-44.72 19.156.032v6.39l-12.14-.015zm23.507 1.06h9.078l-.016 6.39h-9.078l-.016 18.454-7.015-.016.047-44.719 18.578.031v6.391l-11.563-.016zm29.615 24.87c-.087-.3-.173-.578-.267-.828a6.462 6.462 0 0 1 -.218-.953 11.812 11.812 0 0 1 -.125-1.469 60.654 60.654 0 0 1 -.032-2.25l.016-7.016c0-2.093-.367-3.562-1.094-4.406-.718-.851-1.886-1.281-3.5-1.281h-2.437l-.016 18.203-7.015-.016.046-44.718 10.594.015c3.664 0 6.317.856 7.953 2.563 1.633 1.71 2.453 4.293 2.453 7.75l-.015 3.5c0 4.605-1.531 7.625-4.594 9.062 1.79.73 3.016 1.918 3.672 3.563.656 1.636.984 3.625.984 5.968l-.015 6.907c0 1.105.039 2.074.125 2.906.082.824.297 1.664.64 2.516zm-7.626-38.328-.016 13.734h2.75c1.32 0 2.352-.336 3.094-1.015.75-.688 1.125-1.922 1.125-3.704l.016-4.406c0-1.625-.293-2.797-.875-3.515-.574-.727-1.477-1.094-2.703-1.094zm25.069 28.078c0 1.617.329 2.757.985 3.422.656.656 1.535.984 2.64.984 1.114 0 2-.328 2.657-.984.664-.665 1-1.805 1-3.422l.03-24.141c0-1.625-.327-2.766-.983-3.422-.657-.664-1.543-1-2.657-1-1.105 0-1.992.336-2.656 1-.656.656-.984 1.797-.984 3.422zm-6.984-23.72c0-3.612.91-6.382 2.734-8.312 1.832-1.937 4.473-2.906 7.922-2.906 3.457 0 6.098.977 7.922 2.922 1.832 1.938 2.75 4.715 2.75 8.328l-.031 23.25c-.012 3.625-.934 6.406-2.766 8.344-1.824 1.93-4.465 2.89-7.922 2.89-3.449 0-6.09-.968-7.921-2.906-1.825-1.945-2.73-4.734-2.72-8.36zm32.108 1.641-.031 32.39-6.328-.015.046-44.719 8.829.016 7.187 26.765.031-26.765 6.25.015-.047 44.719-7.218-.016zm18.994-12.311 21.719.031v6.39l-7.344-.015-.047 38.328h-7.03l.046-38.328-7.344-.016zm55.032 28.117v5.938c-.012 3.625-.902 6.406-2.672 8.344-1.773 1.93-4.383 2.89-7.828 2.89-3.45 0-6.058-.969-7.828-2.906-1.762-1.945-2.637-4.734-2.625-8.36l.031-23.25c0-3.613.88-6.382 2.64-8.312 1.77-1.937 4.38-2.906 7.829-2.906 3.445 0 6.055.976 7.828 2.922 1.77 1.937 2.656 4.714 2.656 8.328l-.015 4.344-6.656-.016.015-4.781c0-1.625-.328-2.766-.984-3.422-.656-.664-1.543-1-2.656-1-1.106 0-1.993.336-2.657 1-.656.656-.984 1.797-.984 3.422l-.031 24.14c0 1.617.328 2.746.984 3.39.656.638 1.535.954 2.64.954 1.114 0 2-.316 2.657-.953.664-.645 1-1.774 1-3.39v-6.391zm11.282 16.686-7.016-.015.047-44.72 7.016.016-.016 19.172h7.984l.016-19.172 7.156.016-.047 44.719-7.156-.016.016-19.156h-7.985zm42.995.049-7.095-.016-1.203-8.11h-8.61l-1.234 8.11-6.453-.016 7.203-44.703h10.282zm-16.017-14.203h6.766l-3.36-22.61zm33.967 14.218c-.086-.3-.172-.578-.265-.828a6.462 6.462 0 0 1 -.22-.953 11.812 11.812 0 0 1 -.124-1.469 60.654 60.654 0 0 1 -.031-2.25l.015-7.015c0-2.094-.367-3.563-1.093-4.407-.72-.851-1.887-1.28-3.5-1.28h-2.438l-.016 18.202-7.015-.015.047-44.719 10.593.016c3.664 0 6.317.855 7.954 2.562 1.632 1.711 2.453 4.293 2.453 7.75l-.016 3.5c0 4.606-1.531 7.625-4.594 9.063 1.79.73 3.016 1.918 3.672 3.562.656 1.637.985 3.625.985 5.969l-.016 6.906c0 1.106.039 2.074.125 2.906.082.825.297 1.664.64 2.516zm-7.625-38.328-.015 13.735h2.75c1.32 0 2.351-.336 3.093-1.016.75-.688 1.125-1.922 1.125-3.703l.016-4.406c0-1.625-.293-2.797-.875-3.516-.574-.727-1.477-1.094-2.703-1.094zm18.663-6.376 7.016.017-.047 44.718-7.016-.015zm10.09.016 21.719.03v6.391l-7.344-.015-.047 38.328h-7.031l.047-38.328-7.344-.016zm31.334 29.949-8.86-29.922 7.345.016 5.359 20.375 5.375-20.375 6.703.015-8.906 29.89-.016 14.813h-7.015zm0 0" fill="#57c5c7"/><g clip-path="url(#a1)"><g clip-path="url(#a2)"><g clip-path="url(#a3)"><path d="m29.45 142.441-8.36-6.851 5.933-7.238 8.36 6.851zm0 0" fill="#0082c8"/></g></g></g><g clip-path="url(#a4)"><g clip-path="url(#a5)"><g clip-path="url(#a6)"><path d="m343.129 444.555 14.66-7.024 6.082 12.7-14.66 7.023zm0 0" fill="#f4bb27"/></g></g></g><path d="m545.436 462.557a12.541 12.541 0 0 0 -.125-.422 4.416 4.416 0 0 1 -.125-.5 5.76 5.76 0 0 1 -.062-.75 32.846 32.846 0 0 1 -.016-1.172v-3.625c0-1.07-.187-1.828-.562-2.265-.375-.446-.98-.672-1.813-.672h-1.25v9.406h-3.64v-23.094h5.484c1.894 0 3.266.446 4.11 1.328.843.875 1.265 2.203 1.265 3.985v1.812c0 2.375-.793 3.938-2.375 4.688.926.375 1.555.984 1.89 1.828.344.844.516 1.871.516 3.078v3.562c0 .575.02 1.079.063 1.516.05.43.164.86.343 1.297zm-3.953-19.797v7.094h1.422c.676 0 1.207-.176 1.594-.531.383-.352.578-.989.578-1.907v-2.28c0-.833-.152-1.438-.453-1.813-.293-.375-.758-.563-1.39-.563zm15.603-3.297v17.813c0 .836.172 1.418.515 1.75.344.336.801.5 1.375.5.57 0 1.024-.164 1.36-.5.343-.332.515-.914.515-1.75v-17.813h3.438v17.578c0 1.875-.461 3.313-1.375 4.313-.918 1-2.266 1.5-4.047 1.5s-3.133-.5-4.047-1.5c-.906-1-1.36-2.438-1.36-4.313v-17.578zm15.408 6.36v16.734h-3.266v-23.094h4.562l3.72 13.828v-13.828h3.234v23.094h-3.72zm16.599 0v16.734h-3.266v-23.094h4.563l3.719 13.828v-13.828h3.234v23.094h-3.719zm13.365-6.36h3.64v23.094h-3.64zm12.012 6.36v16.734h-3.265v-23.094h4.563l3.718 13.828v-13.828h3.235v23.094h-3.721zm18.819 3.859h5.078v7.328c0 1.875-.461 3.313-1.375 4.313-.906 1-2.25 1.5-4.031 1.5-1.782 0-3.133-.5-4.047-1.5-.918-1-1.375-2.438-1.375-4.313v-12.016c0-1.863.457-3.296 1.375-4.296.914-1 2.265-1.5 4.047-1.5 1.78 0 3.125.5 4.03 1.5.915 1 1.376 2.433 1.376 4.296v2.25h-3.422v-2.468c0-.844-.172-1.43-.516-1.766-.343-.344-.804-.516-1.375-.516-.574 0-1.03.172-1.375.516-.336.336-.5.922-.5 1.766v12.468c0 .836.164 1.418.5 1.75.344.336.801.5 1.375.5.57 0 1.032-.164 1.375-.5.344-.332.516-.914.516-1.75v-4.25h-1.656zm16.501-10.219h11.22v3.297h-3.798v19.797h-3.625v-19.797h-3.797zm18.647 17.781c0 .836.165 1.422.5 1.766.344.344.801.516 1.375.516.57 0 1.032-.172 1.375-.516.344-.344.516-.93.516-1.766v-12.468c0-.844-.172-1.43-.516-1.766-.343-.344-.804-.516-1.375-.516-.574 0-1.03.172-1.375.516-.335.336-.5.922-.5 1.766zm-3.64-12.25c0-1.863.472-3.296 1.422-4.296.945-1 2.312-1.5 4.093-1.5 1.782 0 3.145.5 4.094 1.5.946 1 1.422 2.433 1.422 4.296v12.016c0 1.875-.476 3.313-1.422 4.313-.949 1-2.312 1.5-4.094 1.5-1.78 0-3.148-.5-4.093-1.5-.95-1-1.422-2.438-1.422-4.313zm21.326 4.688h5.078v7.328c0 1.875-.46 3.313-1.375 4.313-.906 1-2.25 1.5-4.03 1.5-1.782 0-3.134-.5-4.048-1.5-.918-1-1.375-2.438-1.375-4.313v-12.016c0-1.863.457-3.296 1.375-4.296.914-1 2.266-1.5 4.047-1.5s3.125.5 4.031 1.5c.914 1 1.375 2.433 1.375 4.296v2.25h-3.422v-2.468c0-.844-.171-1.43-.515-1.766-.344-.344-.805-.516-1.375-.516-.574 0-1.031.172-1.375.516-.336.336-.5.922-.5 1.766v12.468c0 .836.164 1.418.5 1.75.344.336.8.5 1.375.5.57 0 1.031-.164 1.375-.5.344-.332.515-.914.515-1.75v-4.25h-1.656zm13.566-.484h4.984v3.296h-4.984v6.766h6.266v3.297h-9.907v-23.094h9.907v3.297h-6.266zm9.965-9.735h11.219v3.297h-3.797v19.797h-3.625v-19.797h-3.797zm18.944 23.094h-3.64v-23.094h3.64v9.89h4.125v-9.89h3.687v23.094h-3.687v-9.906h-4.125zm16.599-13.359h4.984v3.296h-4.984v6.766h6.266v3.297h-9.907v-23.094h9.907v3.297h-6.266zm18.606 13.359a12.541 12.541 0 0 0 -.125-.422 4.416 4.416 0 0 1 -.125-.5 5.76 5.76 0 0 1 -.063-.75 32.846 32.846 0 0 1 -.016-1.172v-3.625c0-1.07-.187-1.828-.562-2.265-.375-.446-.98-.672-1.813-.672h-1.25v9.406h-3.64v-23.094h5.484c1.895 0 3.266.446 4.11 1.328.843.875 1.265 2.203 1.265 3.985v1.812c0 2.375-.793 3.938-2.375 4.688.926.375 1.555.984 1.89 1.828.345.844.516 1.871.516 3.078v3.562c0 .575.02 1.079.063 1.516.05.43.164.86.344 1.297zm-3.954-19.797v7.094h1.422c.676 0 1.207-.176 1.594-.531.383-.352.578-.989.578-1.907v-2.28c0-.833-.152-1.438-.453-1.813-.293-.375-.758-.563-1.39-.563zm0 0" fill="#8b5aa5"/></svg>
