<svg xmlns="http://www.w3.org/2000/svg" width="390" height="844" version="1.0" viewBox="0 0 292.5 633"><defs><clipPath id="a"><path d="M0 .54h292v631.917H0Zm0 0"/></clipPath><clipPath id="b"><path d="M17 12h269v34H17Zm0 0"/></clipPath><clipPath id="c"><path d="m18.02 12.988 267.75.32-.04 32.25-267.75-.32Zm0 0"/></clipPath><clipPath id="d"><path d="M0 27h292v19H0Zm0 0"/></clipPath><clipPath id="e"><path d="m-17.352 27.598 334.5.406-.02 17.25-334.5-.406Zm0 0"/></clipPath><clipPath id="f"><path d="M0 .54h292V20H0Zm0 0"/></clipPath><clipPath id="g"><path d="m-.613.54 354.75.429-.024 18.75-354.75-.43Zm0 0"/></clipPath><clipPath id="h"><path d="M21 32h230v30H21Zm0 0"/></clipPath><clipPath id="i"><path d="m21.191 32.586 229.5.277-.035 28.5-229.5-.277Zm0 0"/></clipPath><clipPath id="j"><path d="M12 38h254v14H12Zm0 0"/></clipPath><clipPath id="k"><path d="m12.309 38.45 252.75.304-.016 12.75-252.75-.305Zm0 0"/></clipPath><clipPath id="l"><path d="M33 57h253v8H33Zm0 0"/></clipPath><clipPath id="m"><path d="m33.219 57.582 252.75.309-.008 6.75-252.75-.309Zm0 0"/></clipPath><clipPath id="n"><path d="M74 72h218v6H74Zm0 0"/></clipPath><clipPath id="o"><path d="m74.273 72.8 252.75.305-.007 4.5-252.75-.304Zm0 0"/></clipPath><clipPath id="p"><path d="M26 62h254v8H26Zm0 0"/></clipPath><clipPath id="q"><path d="m26.664 62.684 252.75.304-.008 6.75-252.75-.304Zm0 0"/></clipPath><clipPath id="r"><path d="M39 497h39v13H39Zm0 0"/></clipPath><clipPath id="s"><path d="m39.785 506.824 37.461-9.554.563 2.203-37.465 9.554Zm0 0"/></clipPath><clipPath id="t"><path d="M52 504h26v9H52Zm0 0"/></clipPath><clipPath id="u"><path d="m52.68 510.754 23.93-6.102.48 1.891-23.926 6.102Zm0 0"/></clipPath><clipPath id="v"><path d="M37 474h62v18H37Zm0 0"/></clipPath><clipPath id="w"><path d="m37.688 489.688 60.761-15.5.48 1.89-60.757 15.496Zm0 0"/></clipPath><clipPath id="x"><path d="M52 484h35v13H52Zm0 0"/></clipPath><clipPath id="y"><path d="m52.684 493.438 33.367-8.512.804 3.148-33.37 8.512Zm0 0"/></clipPath><clipPath id="z"><path d="M48 492h62v18H48Zm0 0"/></clipPath><clipPath id="A"><path d="m48.36 507.809 60.761-15.497.48 1.887-60.757 15.5Zm0 0"/></clipPath><clipPath id="B"><path d="M48 470h78v22H48Zm0 0"/></clipPath><clipPath id="C"><path d="m48.36 490.086 76.816-19.598.32 1.262-76.812 19.594Zm0 0"/></clipPath><clipPath id="D"><path d="M27 485h24v13H27Zm0 0"/></clipPath><clipPath id="E"><path d="m-5.371 495.898 78.535-27.386 20.219 57.98-78.535 27.387Zm0 0"/></clipPath><clipPath id="F"><path d="m-5.371 495.898 78.535-27.386 20.219 57.98-78.535 27.387Zm0 0"/></clipPath><clipPath id="G"><path d="m-5.371 495.898 78.535-27.386 20.219 57.98-78.535 27.387Zm0 0"/></clipPath><clipPath id="H"><path d="M22 490h27v27H22Zm0 0"/></clipPath><clipPath id="I"><path d="m-5.371 495.898 78.535-27.386 20.219 57.98-78.535 27.387Zm0 0"/></clipPath><clipPath id="J"><path d="m-5.371 495.898 78.535-27.386 20.219 57.98-78.535 27.387Zm0 0"/></clipPath><clipPath id="K"><path d="m-5.371 495.898 78.535-27.386 20.219 57.98-78.535 27.387Zm0 0"/></clipPath><clipPath id="L"><path d="M46 489h13v17H46Zm0 0"/></clipPath><clipPath id="M"><path d="m-5.371 495.898 78.535-27.386 20.219 57.98-78.535 27.387Zm0 0"/></clipPath><clipPath id="N"><path d="m-5.371 495.898 78.535-27.386 20.219 57.98-78.535 27.387Zm0 0"/></clipPath><clipPath id="O"><path d="m-5.371 495.898 78.535-27.386 20.219 57.98-78.535 27.387Zm0 0"/></clipPath><clipPath id="P"><path d="M2 510h25v8H2Zm0 0"/></clipPath><clipPath id="Q"><path d="m-5.371 495.898 78.535-27.386 20.219 57.98-78.535 27.387Zm0 0"/></clipPath><clipPath id="R"><path d="m-5.371 495.898 78.535-27.386 20.219 57.98-78.535 27.387Zm0 0"/></clipPath><clipPath id="S"><path d="m-5.371 495.898 78.535-27.386 20.219 57.98-78.535 27.387Zm0 0"/></clipPath><clipPath id="T"><path d="M20 485h18v28H20Zm0 0"/></clipPath><clipPath id="U"><path d="m-5.371 495.898 78.535-27.386 20.219 57.98-78.535 27.387Zm0 0"/></clipPath><clipPath id="V"><path d="m-5.371 495.898 78.535-27.386 20.219 57.98-78.535 27.387Zm0 0"/></clipPath><clipPath id="W"><path d="m-5.371 495.898 78.535-27.386 20.219 57.98-78.535 27.387Zm0 0"/></clipPath><clipPath id="X"><path d="M45 505h31v19H45Zm0 0"/></clipPath><clipPath id="Y"><path d="m-5.371 495.898 78.535-27.386 20.219 57.98-78.535 27.387Zm0 0"/></clipPath><clipPath id="Z"><path d="m-5.371 495.898 78.535-27.386 20.219 57.98-78.535 27.387Zm0 0"/></clipPath><clipPath id="aa"><path d="m-5.371 495.898 78.535-27.386 20.219 57.98-78.535 27.387Zm0 0"/></clipPath><clipPath id="ab"><path d="M67 505h19v12H67Zm0 0"/></clipPath><clipPath id="ac"><path d="m-5.371 495.898 78.535-27.386 20.219 57.98-78.535 27.387Zm0 0"/></clipPath><clipPath id="ad"><path d="m-5.371 495.898 78.535-27.386 20.219 57.98-78.535 27.387Zm0 0"/></clipPath><clipPath id="ae"><path d="m-5.371 495.898 78.535-27.386 20.219 57.98-78.535 27.387Zm0 0"/></clipPath><clipPath id="af"><path d="M28 505h32v23H28Zm0 0"/></clipPath><clipPath id="ag"><path d="m-5.371 495.898 78.535-27.386 20.219 57.98-78.535 27.387Zm0 0"/></clipPath><clipPath id="ah"><path d="m-5.371 495.898 78.535-27.386 20.219 57.98-78.535 27.387Zm0 0"/></clipPath><clipPath id="ai"><path d="m-5.371 495.898 78.535-27.386 20.219 57.98-78.535 27.387Zm0 0"/></clipPath><clipPath id="aj"><path d="M18 485h13v11H18Zm0 0"/></clipPath><clipPath id="ak"><path d="m-5.371 495.898 78.535-27.386 20.219 57.98-78.535 27.387Zm0 0"/></clipPath><clipPath id="al"><path d="m-5.371 495.898 78.535-27.386 20.219 57.98-78.535 27.387Zm0 0"/></clipPath><clipPath id="am"><path d="m-5.371 495.898 78.535-27.386 20.219 57.98-78.535 27.387Zm0 0"/></clipPath><clipPath id="an"><path d="M18 509h22v44H18Zm0 0"/></clipPath><clipPath id="ao"><path d="m-5.371 495.898 78.535-27.386 20.219 57.98-78.535 27.387Zm0 0"/></clipPath><clipPath id="ap"><path d="m-5.371 495.898 78.535-27.386 20.219 57.98-78.535 27.387Zm0 0"/></clipPath><clipPath id="aq"><path d="m-5.371 495.898 78.535-27.386 20.219 57.98-78.535 27.387Zm0 0"/></clipPath><clipPath id="ar"><path d="M70 567h222v29H70Zm0 0"/></clipPath><clipPath id="as"><path d="m70.898 567.453 270-.258.028 28.5-270 .258Zm0 0"/></clipPath><clipPath id="at"><path d="M0 573h269v35H0Zm0 0"/></clipPath><clipPath id="au"><path d="m-5.371 574.2 273.75-.259.031 33-273.75.258Zm0 0"/></clipPath><clipPath id="av"><path d="M0 593h226v20H0Zm0 0"/></clipPath><clipPath id="aw"><path d="m-48.61 593.703 273.75-.258.02 18.75-273.75.258Zm0 0"/></clipPath><clipPath id="ax"><path d="M34 582h236v40H34Zm0 0"/></clipPath><clipPath id="ay"><path d="m34.883 582.273 234.75-.222.035 39-234.75.222Zm0 0"/></clipPath><clipPath id="az"><path d="M25 598h259v15H25Zm0 0"/></clipPath><clipPath id="aA"><path d="m25.832 598.543 258-.242.012 13.5-257.996.242Zm0 0"/></clipPath><clipPath id="aB"><path d="M18 627h259v5.457H18Zm0 0"/></clipPath><clipPath id="aC"><path d="m18.164 627.418 258-.242.004 6.75-257.996.242Zm0 0"/></clipPath><clipPath id="aD"><path d="M77 586h215v6H77Zm0 0"/></clipPath><clipPath id="aE"><path d="m77.816 586.578 258-.246.004 4.5-258 .246Zm0 0"/></clipPath><clipPath id="aF"><path d="M40 560h252v5H40Zm0 0"/></clipPath><clipPath id="aG"><path d="m40.348 561.09 258-.242.004 3-258 .242Zm0 0"/></clipPath><clipPath id="aH"><path d="M273 52h6v6h-6Zm0 0"/></clipPath><clipPath id="aI"><path d="m276.344 51.441 4.058 2.926-2.53 3.516-4.063-2.926Zm0 0"/></clipPath><clipPath id="aJ"><path d="m273.809 54.957 4.566-2.055-.504 4.98Zm0 0"/></clipPath><clipPath id="aK"><path d="M14 614h6v6h-6Zm0 0"/></clipPath><clipPath id="aL"><path d="m17.477 612.516 4.296 3.363-2.91 3.723-4.3-3.364Zm0 0"/></clipPath><clipPath id="aM"><path d="m14.563 616.238 5.062-2.039-.762 5.403Zm0 0"/></clipPath><clipPath id="aN"><path d="M9 597h6v7H9Zm0 0"/></clipPath><clipPath id="aO"><path d="m7.418 599.371 4.61-2.933 2.538 3.992-4.609 2.933Zm0 0"/></clipPath><clipPath id="aP"><path d="m9.957 603.363-.234-5.457 4.843 2.524Zm0 0"/></clipPath><clipPath id="aQ"><path d="M111 83h6v6h-6Zm0 0"/></clipPath><clipPath id="aR"><path d="m112.637 83.422 4.894 1.039-.898 4.242-4.899-1.043Zm0 0"/></clipPath><clipPath id="aS"><path d="m111.734 87.66 3.352-3.719 1.547 4.762Zm0 0"/></clipPath><clipPath id="aT"><path d="M17 554h9v8h-9Zm0 0"/></clipPath><clipPath id="aU"><path d="m27.773 558.574-4.695 6.399-5.543-4.067 4.695-6.398Zm0 0"/></clipPath><clipPath id="aV"><path d="m22.23 554.508 3.196 7.265-7.89-.867Zm0 0"/></clipPath><clipPath id="aW"><path d="M10 58h6v6h-6Zm0 0"/></clipPath><clipPath id="aX"><path d="m12.832 64.785-3.738-3.062 2.652-3.239 3.738 3.067Zm0 0"/></clipPath><clipPath id="aY"><path d="m15.484 61.55-4.523 1.704.785-4.77Zm0 0"/></clipPath><clipPath id="aZ"><path d="M59 548h8v9h-8Zm0 0"/></clipPath><clipPath id="ba"><path d="m56.613 550.477 7.157-3.43 2.968 6.2-7.156 3.429Zm0 0"/></clipPath><clipPath id="bb"><path d="m59.582 556.676.61-7.914 6.546 4.484Zm0 0"/></clipPath></defs><g fill="#fff" clip-path="url(#a)"><path d="M0 .54h292.5v640.5H0Zm0 0"/><path d="M0 .54h292.5v633H0Zm0 0"/><path d="M0 .54h292.5v633H0Zm0 0"/></g><g clip-path="url(#b)"><g clip-path="url(#c)"><path fill="#0082c8" d="m18.02 12.988 267.75.32-.04 32.25-267.75-.32Zm0 0"/></g></g><g clip-path="url(#d)"><g clip-path="url(#e)"><path fill="#8b5aa5" d="m-17.352 27.598 334.5.406-.02 17.25-334.5-.406Zm0 0"/></g></g><g clip-path="url(#f)"><g clip-path="url(#g)"><path fill="#57c5c7" d="m-.613.54 354.75.429-.024 18.75-354.75-.43Zm0 0"/></g></g><g clip-path="url(#h)"><g clip-path="url(#i)"><path fill="#e45455" d="m21.191 32.586 229.5.277-.035 28.5-229.5-.277Zm0 0"/></g></g><g clip-path="url(#j)"><g clip-path="url(#k)"><path fill="#f4bb27" d="m12.309 38.45 252.75.304-.016 12.75-252.75-.305Zm0 0"/></g></g><g clip-path="url(#l)"><g clip-path="url(#m)"><path fill="#fff" d="m33.219 57.582 252.75.309-.008 6.75-252.75-.309Zm0 0"/></g></g><g clip-path="url(#n)"><g clip-path="url(#o)"><path fill="#57c5c7" d="m74.273 72.8 252.75.305-.007 4.5-252.75-.304Zm0 0"/></g></g><g clip-path="url(#p)"><g clip-path="url(#q)"><path fill="#8b5aa5" d="m26.664 62.684 252.75.304-.008 6.75-252.75-.304Zm0 0"/></g></g><g clip-path="url(#r)"><g clip-path="url(#s)"><path fill="#e45455" d="m39.785 506.824 37.461-9.554.563 2.203-37.465 9.554Zm0 0"/></g></g><g clip-path="url(#t)"><g clip-path="url(#u)"><path fill="#57c5c7" d="m52.68 510.754 23.93-6.102.48 1.891-23.926 6.102Zm0 0"/></g></g><g clip-path="url(#v)"><g clip-path="url(#w)"><path fill="#57c5c7" d="m37.688 489.688 60.761-15.5.48 1.89-60.757 15.496Zm0 0"/></g></g><g clip-path="url(#x)"><g clip-path="url(#y)"><path fill="#f4bb27" d="m52.684 493.438 33.367-8.512.804 3.148-33.37 8.512Zm0 0"/></g></g><g clip-path="url(#z)"><g clip-path="url(#A)"><path fill="#8b5aa5" d="m48.36 507.809 60.761-15.497.48 1.887-60.757 15.5Zm0 0"/></g></g><g clip-path="url(#B)"><g clip-path="url(#C)"><path fill="#0082c8" d="m48.36 490.086 76.816-19.598.32 1.262-76.812 19.594Zm0 0"/></g></g><g clip-path="url(#D)"><g clip-path="url(#E)"><g clip-path="url(#F)"><g clip-path="url(#G)"><path fill="#3fb1e5" d="m50.934 495.113-4.555-6.02-8.668-3.12-10.504 11.558Zm0 0"/></g></g></g></g><g clip-path="url(#H)"><g clip-path="url(#I)"><g clip-path="url(#J)"><g clip-path="url(#K)"><path fill="#188bcc" d="m27.207 497.531-4.676 5.149 25.805 13.761-2.715-10.976-10.223-15.41Zm0 0"/></g></g></g></g><g clip-path="url(#L)"><g clip-path="url(#M)"><g clip-path="url(#N)"><g clip-path="url(#O)"><path fill="#188bcc" d="m46.379 489.094 11.738 16.441-2.691-13.18Zm0 0"/></g></g></g></g><g clip-path="url(#P)"><g clip-path="url(#Q)"><g clip-path="url(#R)"><g clip-path="url(#S)"><path fill="#f69225" d="m2.398 517.64 21.266-.202 3.043-6.829Zm0 0"/></g></g></g></g><g clip-path="url(#T)"><g clip-path="url(#U)"><g clip-path="url(#V)"><g clip-path="url(#W)"><path fill="#ee5630" d="m22.555 502.684-1.856 9.718 6.008-1.793 11.004-24.636Zm0 0"/></g></g></g></g><g clip-path="url(#X)"><g clip-path="url(#Y)"><g clip-path="url(#Z)"><g clip-path="url(#aa)"><path fill="#ee5630" d="m45.621 505.465 2.715 10.976 19.129 6.786 7.62-7.16Zm0 0"/></g></g></g></g><g clip-path="url(#ab)"><g clip-path="url(#ac)"><g clip-path="url(#ad)"><g clip-path="url(#ae)"><path fill="#f69225" d="m67.594 513.367 7.492 2.7L86 505.816Zm0 0"/></g></g></g></g><g clip-path="url(#af)"><g clip-path="url(#ag)"><g clip-path="url(#ah)"><g clip-path="url(#ai)"><path fill="#7bc245" d="m59.129 510.348-13.508-4.883-6.082 4.05-10.676 17.919Zm0 0"/></g></g></g></g><g clip-path="url(#aj)"><g clip-path="url(#ak)"><g clip-path="url(#al)"><g clip-path="url(#am)"><path fill="#3fb1e5" d="m30.004 492.387-3.129 3.511-6.758-.14-1.262-5.965 4.23-3.82Zm0 0"/></g></g></g></g><g clip-path="url(#an)"><g clip-path="url(#ao)"><g clip-path="url(#ap)"><g clip-path="url(#aq)"><path fill="#b8d537" d="m28.824 527.46.04-.026 10.675-17.918-18.176 12.472-3.203 30.758Zm0 0"/></g></g></g></g><g clip-path="url(#ar)"><g clip-path="url(#as)"><path fill="#f4bb27" d="m70.898 567.453 270-.258.028 28.5-270 .258Zm0 0"/></g></g><g clip-path="url(#at)"><g clip-path="url(#au)"><path fill="#0082c8" d="m-5.371 574.2 273.75-.259.031 33-273.75.258Zm0 0"/></g></g><g clip-path="url(#av)"><g clip-path="url(#aw)"><path fill="#fff" d="m-48.61 593.703 273.75-.258.02 18.75-273.75.258Zm0 0"/></g></g><g clip-path="url(#ax)"><g clip-path="url(#ay)"><path fill="#e45455" d="m34.883 582.273 234.75-.222.035 39-234.75.222Zm0 0"/></g></g><g clip-path="url(#az)"><g clip-path="url(#aA)"><path fill="#f4bb27" d="m25.832 598.543 258-.242.012 13.5-257.996.242Zm0 0"/></g></g><g clip-path="url(#aB)"><g clip-path="url(#aC)"><path fill="#8b5aa5" d="m18.164 627.418 258-.242.004 6.75-257.996.242Zm0 0"/></g></g><g clip-path="url(#aD)"><g clip-path="url(#aE)"><path fill="#57c5c7" d="m77.816 586.578 258-.246.004 4.5-258 .246Zm0 0"/></g></g><g clip-path="url(#aF)"><g clip-path="url(#aG)"><path fill="#57c5c7" d="m40.348 561.09 258-.242.004 3-258 .242Zm0 0"/></g></g><path fill="#309bd6" d="M90.636 115.108c0-1.489-.246-2.493-.734-3.016-.492-.531-1.152-.797-1.984-.797-.825 0-1.485.25-1.985.75-.492.492-.734 1.34-.734 2.547v3.562l-4.953-.015v-3.235c0-2.695.66-4.77 1.984-6.218 1.32-1.446 3.27-2.164 5.844-2.157 2.582 0 4.531.727 5.844 2.172 1.312 1.45 1.968 3.524 1.968 6.219 0 1.75-.261 3.336-.78 4.75a17.845 17.845 0 0 1-1.938 3.86 26.771 26.771 0 0 1-2.516 3.218c-.906.98-1.75 1.918-2.531 2.813-.781.886-1.43 1.75-1.938 2.593-.5.844-.758 1.727-.765 2.641 0 .324.015.563.047.719h9.906v4.765l-15.156-.015v-4.094c0-1.625.253-3.055.765-4.297a15.904 15.904 0 0 1 1.938-3.406 29.244 29.244 0 0 1 2.5-2.89 31.474 31.474 0 0 0 2.515-2.876 15.185 15.185 0 0 0 1.938-3.343c.508-1.207.765-2.625.765-4.25ZM103.916 132.63c-.012 1.211.227 2.059.719 2.547.5.492 1.16.735 1.984.735.82 0 1.477-.243 1.969-.735.5-.488.754-1.336.766-2.547l.015-18.015c0-1.207-.25-2.055-.75-2.547-.492-.5-1.148-.75-1.969-.75-.824 0-1.484.25-1.984.75-.492.492-.734 1.34-.734 2.547Zm-5.219-17.703c0-2.695.68-4.77 2.047-6.219 1.375-1.445 3.348-2.164 5.922-2.156 2.57 0 4.54.727 5.906 2.172 1.364 1.45 2.047 3.523 2.047 6.219l-.015 17.344c-.012 2.71-.704 4.789-2.079 6.234-1.367 1.437-3.335 2.156-5.906 2.156-2.574-.012-4.543-.734-5.906-2.172-1.367-1.445-2.043-3.523-2.031-6.234ZM128.383 115.153c0-1.488-.246-2.492-.734-3.016-.492-.53-1.152-.797-1.985-.797-.824 0-1.484.25-1.984.75-.492.493-.734 1.34-.734 2.547v3.563l-4.953-.016v-3.234c0-2.695.66-4.77 1.984-6.219 1.32-1.445 3.27-2.164 5.844-2.156 2.582 0 4.531.726 5.843 2.172 1.313 1.449 1.97 3.523 1.97 6.218 0 1.75-.262 3.336-.782 4.75a17.845 17.845 0 0 1-1.938 3.86 26.771 26.771 0 0 1-2.515 3.219c-.906.98-1.75 1.918-2.531 2.812-.782.887-1.43 1.75-1.938 2.594-.5.844-.758 1.726-.766 2.64 0 .325.016.563.047.72h9.907v4.765l-15.157-.016v-4.094c0-1.625.254-3.054.766-4.296a15.904 15.904 0 0 1 1.937-3.407 29.244 29.244 0 0 1 2.5-2.89 31.474 31.474 0 0 0 2.516-2.875 15.185 15.185 0 0 0 1.938-3.344c.507-1.207.765-2.625.765-4.25ZM146.975 115.176c0-1.489-.25-2.492-.75-3.016-.492-.531-1.148-.797-1.968-.797-.825 0-1.485.25-1.985.75-.492.492-.734 1.34-.734 2.547v2.14l-4.953-.015v-1.812c0-2.696.66-4.77 1.984-6.22 1.32-1.444 3.27-2.163 5.844-2.155 2.57 0 4.516.726 5.828 2.171 1.313 1.45 1.969 3.524 1.969 6.22v.859c-.012 3.562-1.235 5.851-3.672 6.859 1.332.574 2.273 1.46 2.828 2.656.55 1.188.828 2.64.828 4.36v2.609c-.012 2.71-.68 4.789-2 6.234-1.312 1.438-3.258 2.157-5.828 2.157-2.574-.012-4.523-.735-5.844-2.172-1.312-1.446-1.965-3.524-1.953-6.235v-2.765l4.953.015v3.11c-.011 1.21.227 2.058.719 2.547.5.492 1.16.734 1.984.734.82 0 1.477-.25 1.97-.75.5-.508.753-1.516.765-3.016v-2.625c0-1.55-.274-2.644-.813-3.28-.543-.634-1.418-.954-2.625-.954h-1.765l.015-4.766h2.047c.988 0 1.758-.254 2.313-.765.562-.508.843-1.43.843-2.766ZM161.611 106.989l16.219.015-.016 4.766h-5.484l-.031 28.61-5.25-.016.03-28.61h-5.484ZM195.281 127.962v4.422c-.011 2.711-.68 4.79-2 6.234-1.312 1.438-3.258 2.157-5.828 2.157-2.574-.012-4.523-.735-5.844-2.172-1.312-1.446-1.964-3.524-1.953-6.235l.016-17.343c0-2.696.66-4.77 1.984-6.22 1.32-1.444 3.27-2.163 5.844-2.155 2.57 0 4.516.726 5.828 2.172 1.313 1.449 1.969 3.523 1.969 6.218v3.235h-4.953v-3.563c0-1.207-.25-2.055-.75-2.547-.492-.5-1.149-.75-1.969-.75-.824 0-1.484.25-1.984.75-.493.492-.735 1.34-.735 2.547l-.015 18.016c-.012 1.21.226 2.054.718 2.531.5.469 1.16.703 1.985.703.82 0 1.476-.234 1.968-.703.5-.477.754-1.32.766-2.531v-4.766ZM197.819 115.047c0-2.696.644-4.77 1.937-6.219 1.29-1.445 3.227-2.164 5.813-2.156 2.57 0 4.5.726 5.78 2.172 1.282 1.449 1.923 3.523 1.923 6.218v1.047h-4.953v-1.375c0-1.207-.235-2.054-.703-2.547-.461-.5-1.102-.75-1.922-.75-.836 0-1.48.247-1.938.735-.46.492-.687 1.34-.687 2.547 0 1.136.254 2.148.765 3.03.508.876 1.14 1.704 1.89 2.485a47.396 47.396 0 0 0 2.454 2.344 22.291 22.291 0 0 1 2.453 2.547 13.133 13.133 0 0 1 1.906 3.14c.508 1.18.766 2.56.766 4.141-.012 2.711-.68 4.79-2 6.235-1.312 1.437-3.258 2.156-5.828 2.156-2.586-.012-4.54-.735-5.86-2.172-1.312-1.445-1.964-3.524-1.953-6.234v-2.047h4.954v2.39c-.012 1.211.226 2.055.718 2.532.5.48 1.16.718 1.985.718.832 0 1.492-.234 1.984-.703.488-.476.738-1.32.75-2.531 0-1.145-.258-2.156-.766-3.031a11.822 11.822 0 0 0-1.906-2.47 49.03 49.03 0 0 0-2.453-2.343 24.169 24.169 0 0 1-2.453-2.562 13.061 13.061 0 0 1-1.906-3.157c-.5-1.175-.75-2.554-.75-4.14ZM46.846 182.062l-.031 24.172-4.719-.016.047-33.375 6.578.016 5.36 19.984.03-19.984h4.673l-.047 33.375h-5.391ZM67.76 186.946h7.187v4.765h-7.188l-.015 9.781h9.047v4.766l-14.297-.016.047-33.375 14.297.016-.016 4.766h-9.047ZM91.673 188.498l-1.922 17.781-7.187-.015-3.672-33.375h5.094l2.781 26.328 2.563-26.313h5.046l2.594 26.516 2.75-26.5h4.578l-3.765 33.375-6.953-.016ZM119.175 195.258l-6.594-22.328h5.484l3.969 15.234 4.047-15.219h5l-6.656 22.313-.016 11.062h-5.25ZM137.954 198.671c-.012 1.211.227 2.059.719 2.547.5.492 1.16.735 1.984.735.82 0 1.477-.243 1.97-.735.5-.488.753-1.336.765-2.547l.015-18.015c0-1.207-.25-2.055-.75-2.547-.492-.5-1.148-.75-1.968-.75-.825 0-1.485.25-1.985.75-.492.492-.734 1.34-.734 2.547Zm-5.219-17.703c0-2.695.68-4.77 2.047-6.219 1.375-1.445 3.348-2.164 5.922-2.156 2.57 0 4.54.727 5.906 2.172 1.364 1.45 2.047 3.523 2.047 6.219l-.015 17.344c-.012 2.71-.703 4.789-2.078 6.234-1.368 1.437-3.336 2.156-5.907 2.156-2.574-.012-4.543-.734-5.906-2.172-1.367-1.445-2.043-3.523-2.031-6.234ZM162.968 206.366a7.948 7.948 0 0 0-.203-.61 5.767 5.767 0 0 1-.172-.718c-.043-.29-.074-.656-.094-1.094a66.855 66.855 0 0 1-.015-1.672l.015-5.25c0-1.55-.273-2.644-.812-3.281-.531-.645-1.402-.969-2.61-.969h-1.812l-.016 13.594-5.25-.016.047-33.375 7.922.016c2.727 0 4.703.637 5.922 1.906 1.219 1.274 1.828 3.2 1.828 5.781v2.61c-.011 3.437-1.164 5.699-3.453 6.781 1.332.531 2.242 1.414 2.734 2.64.5 1.22.75 2.704.75 4.454l-.015 5.156c0 .824.031 1.547.094 2.172a7.02 7.02 0 0 0 .468 1.875Zm-5.687-28.61-.016 10.25h2.047c.977 0 1.75-.25 2.312-.75.563-.507.844-1.43.844-2.765v-3.297c0-1.207-.215-2.082-.64-2.625-.43-.539-1.106-.812-2.032-.812ZM178.034 193.092l-1.61 3.047-.015 10.25-5.25-.016.047-33.375 5.25.016-.032 14.547 6.891-14.547h5.25l-7.328 14.875 7.281 18.5h-5.39ZM213.496 193.984v4.422c-.011 2.71-.68 4.79-2 6.234-1.312 1.438-3.258 2.157-5.828 2.157-2.574-.012-4.523-.735-5.844-2.172-1.312-1.446-1.964-3.524-1.953-6.235l.016-17.343c0-2.696.66-4.77 1.984-6.22 1.32-1.444 3.27-2.163 5.844-2.155 2.57 0 4.516.726 5.828 2.171 1.313 1.45 1.969 3.524 1.969 6.22v3.234h-4.953v-3.563c0-1.207-.25-2.055-.75-2.547-.492-.5-1.149-.75-1.969-.75-.824 0-1.484.25-1.984.75-.493.492-.735 1.34-.735 2.547l-.015 18.016c-.012 1.21.226 2.054.718 2.531.5.469 1.16.703 1.985.703.82 0 1.476-.234 1.968-.703.5-.477.754-1.32.766-2.531v-4.766ZM216.721 173.053l5.25.016-.047 33.375-5.25-.016ZM224.245 173.064l16.22.016-.017 4.765h-5.484l-.031 28.61-5.25-.016.031-28.61h-5.484ZM247.619 195.413l-6.594-22.329h5.484l3.969 15.235 4.047-15.219h5l-6.656 22.313-.016 11.062h-5.25ZM82.767 262.597l3.609-23.703 7.297.016-.047 33.375-4.969-.016.031-23.937-3.656 23.937H80.08l-3.875-23.61-.031 23.595h-4.578l.047-33.375 7.296.015ZM114.394 272.3h-5.28l-.907-6.047-6.438-.015-.906 6.047h-4.812l5.375-33.375 7.672.015Zm-11.953-10.578h5.063l-2.516-16.875ZM127.792 272.324a7.948 7.948 0 0 0-.203-.61 5.767 5.767 0 0 1-.172-.719c-.043-.289-.074-.656-.094-1.093a66.855 66.855 0 0 1-.015-1.672l.015-5.25c0-1.55-.273-2.645-.812-3.281-.531-.645-1.403-.97-2.61-.97h-1.812l-.016 13.595-5.25-.016.047-33.375 7.922.016c2.727 0 4.703.636 5.922 1.906 1.219 1.273 1.828 3.2 1.828 5.781v2.61c-.012 3.437-1.164 5.699-3.453 6.78 1.332.532 2.242 1.415 2.734 2.641.5 1.22.75 2.703.75 4.453l-.015 5.157c0 .824.031 1.547.093 2.172a7.02 7.02 0 0 0 .47 1.875Zm-5.687-28.61-.016 10.25h2.047c.976 0 1.75-.25 2.312-.75.563-.508.844-1.43.844-2.765v-3.297c0-1.207-.215-2.082-.64-2.625-.43-.54-1.106-.813-2.032-.813ZM152.951 272.347h-5.28l-.907-6.047-6.438-.016-.906 6.047h-4.812l5.375-33.375 7.672.016Zm-11.953-10.578h5.063l-2.516-16.875ZM153.896 238.98l16.219.015-.016 4.766h-5.484l-.031 28.609-5.25-.016.03-28.609h-5.484ZM177.597 272.39l-5.25-.015.047-33.375 5.25.015-.031 14.313h5.953l.031-14.313h5.344l-.047 33.375h-5.343l.015-14.296h-5.953ZM197.526 264.743c-.011 1.211.227 2.059.72 2.547.5.492 1.16.734 1.984.734.82 0 1.476-.242 1.968-.734.5-.488.754-1.336.766-2.547l.016-18.016c0-1.207-.25-2.054-.75-2.546-.493-.5-1.149-.75-1.97-.75-.823 0-1.484.25-1.984.75-.492.492-.734 1.34-.734 2.546Zm-5.218-17.703c0-2.695.68-4.77 2.047-6.219 1.375-1.445 3.347-2.164 5.921-2.156 2.57 0 4.54.727 5.907 2.172 1.363 1.449 2.047 3.523 2.047 6.219l-.016 17.343c-.012 2.711-.703 4.79-2.078 6.235-1.367 1.437-3.336 2.156-5.906 2.156-2.575-.012-4.543-.734-5.907-2.172-1.367-1.445-2.043-3.523-2.031-6.234ZM216.275 248.266l-.031 24.172-4.72-.016.048-33.375 6.578.016 5.36 19.984.03-19.984h4.672l-.047 33.375h-5.39Zm0 0"/><g clip-path="url(#aH)"><g clip-path="url(#aI)"><g clip-path="url(#aJ)"><path fill="#57c5c7" d="m276.344 51.441 4.058 2.926-2.53 3.516-4.063-2.926Zm0 0"/></g></g></g><g clip-path="url(#aK)"><g clip-path="url(#aL)"><g clip-path="url(#aM)"><path fill="#8b5aa5" d="m17.477 612.516 4.296 3.363-2.91 3.723-4.3-3.364Zm0 0"/></g></g></g><g clip-path="url(#aN)"><g clip-path="url(#aO)"><g clip-path="url(#aP)"><path fill="#57c5c7" d="m7.418 599.371 4.61-2.933 2.538 3.992-4.609 2.933Zm0 0"/></g></g></g><g clip-path="url(#aQ)"><g clip-path="url(#aR)"><g clip-path="url(#aS)"><path fill="#8b5aa5" d="m112.637 83.422 4.894 1.039-.898 4.242-4.899-1.043Zm0 0"/></g></g></g><g clip-path="url(#aT)"><g clip-path="url(#aU)"><g clip-path="url(#aV)"><path fill="#e45455" d="m27.773 558.574-4.695 6.399-5.543-4.067 4.695-6.398Zm0 0"/></g></g></g><path fill="#f5942e" d="M76.021 432.574c.75 0 1.363-.078 1.844-.234.488-.165.883-.391 1.187-.672.313-.282.563-.61.75-.985.188-.375.348-.773.485-1.203h2.625l-.032 24.766h-3.89l.015-18.89-3-.016ZM97.633 432.6c.75 0 1.364-.078 1.844-.234.488-.165.883-.391 1.187-.672.313-.282.563-.61.75-.985.188-.375.348-.773.485-1.203h2.625l-.031 24.766h-3.891l.016-18.89-3-.016ZM120.558 450.532v3.75h-3.75v-3.75ZM134.556 448.596c0 .906.18 1.543.546 1.906.364.368.852.555 1.47.563.612 0 1.1-.18 1.468-.547.363-.363.547-1 .547-1.906l.015-13.36c.008-.894-.168-1.523-.53-1.89-.368-.375-.856-.563-1.47-.563-.617-.008-1.105.172-1.468.547-.368.367-.555.996-.563 1.89Zm-3.875-13.11c.007-2.007.52-3.55 1.53-4.624 1.02-1.07 2.485-1.602 4.391-1.594 1.914 0 3.38.54 4.391 1.61 1.008 1.074 1.508 2.617 1.5 4.624l-.016 12.875c0 2-.507 3.54-1.515 4.61-1.012 1.074-2.477 1.61-4.39 1.61-1.907-.013-3.372-.552-4.391-1.626-1.012-1.07-1.516-2.61-1.516-4.61ZM156.12 446.325l-.015 2.297c0 .906.18 1.54.547 1.89.363.345.852.524 1.469.532.613 0 1.101-.172 1.469-.516.363-.351.546-.984.546-1.89l.016-5.438c0-.894-.183-1.523-.547-1.89-.367-.364-.855-.547-1.469-.547-.617-.008-1.105.168-1.468.531-.367.367-.547.996-.547 1.89v.735h-3.688l.735-14.36 10.25.016v3.547l-6.75-.015-.344 5.906c.727-1.207 1.863-1.805 3.406-1.797 1.438 0 2.516.484 3.235 1.453.718.969 1.078 2.371 1.078 4.203l-.016 5.531c0 2-.492 3.54-1.469 4.61-.98 1.074-2.422 1.61-4.328 1.61-1.918-.013-3.367-.552-4.344-1.626-.98-1.07-1.468-2.61-1.468-4.61l.015-2.062ZM177.967 450.601v3.75h-3.75v-3.75ZM196.121 435.712c.008-1.113-.168-1.863-.531-2.25-.367-.394-.855-.594-1.469-.594-.617-.007-1.105.172-1.468.547-.368.367-.555.996-.563 1.89v2.657h-3.672v-2.406c.008-2.008.5-3.55 1.469-4.625.976-1.07 2.426-1.602 4.344-1.594 1.906 0 3.347.54 4.328 1.61.976 1.074 1.46 2.617 1.453 4.625 0 1.292-.188 2.464-.563 3.515a12.766 12.766 0 0 1-1.437 2.875c-.574.856-1.2 1.649-1.875 2.375a185.21 185.21 0 0 0-1.875 2.078 14.267 14.267 0 0 0-1.438 1.922 3.683 3.683 0 0 0-.578 1.969c0 .23.016.406.047.531l7.36.016v3.531l-11.25-.016v-3.046c0-1.196.187-2.254.562-3.172.383-.926.863-1.77 1.438-2.532a22.075 22.075 0 0 1 1.859-2.156 23.025 23.025 0 0 0 1.86-2.14c.581-.75 1.062-1.57 1.437-2.47.375-.894.562-1.94.562-3.14ZM217.53 435.738c.008-1.113-.172-1.863-.547-2.25-.367-.394-.855-.594-1.468-.594-.606-.007-1.094.172-1.47.547-.366.367-.554.996-.562 1.89v1.595h-3.671v-1.344c.007-2.008.503-3.55 1.484-4.625.977-1.07 2.422-1.602 4.328-1.594 1.914 0 3.363.54 4.344 1.61.976 1.074 1.46 2.617 1.453 4.625v.625c0 2.648-.914 4.343-2.734 5.093.988.43 1.691 1.086 2.109 1.969.414.887.625 1.965.625 3.234l-.016 1.954c0 2-.492 3.539-1.468 4.609-.98 1.074-2.43 1.61-4.344 1.61-1.906-.012-3.352-.551-4.328-1.626-.98-1.07-1.47-2.61-1.47-4.61l.017-2.062h3.671l-.015 2.297c0 .907.18 1.543.547 1.907.375.367.863.554 1.468.562.614 0 1.102-.187 1.47-.562.374-.383.562-1.13.562-2.235l.015-1.953c0-1.156-.203-1.969-.61-2.437-.397-.47-1.042-.707-1.937-.72h-1.312v-3.546l1.516.016c.726 0 1.3-.188 1.718-.563.414-.375.625-1.055.625-2.047Zm0 0"/><path fill="#57c5c7" d="M46.26 323.779c0-1.781.285-3.29.859-4.531.582-1.239 1.55-2.157 2.906-2.75-2.5-1.063-3.75-3.442-3.75-7.141v-.656c0-2.801.672-4.93 2.016-6.39 1.343-1.458 3.39-2.18 6.14-2.173h6.25l-.015 4.969h-6.157c-.867 0-1.546.25-2.046.75-.493.492-.735 1.36-.735 2.61v2.14c0 1.387.285 2.344.86 2.875.582.531 1.39.797 2.421.797h2.375v-3.875h5.454v3.875l1.437.016-.016 4.953-1.437-.016-.016 11.406c0 .867.032 1.621.094 2.266.07.648.238 1.297.5 1.953h-5.547a7.032 7.032 0 0 1-.312-1.062c-.063-.352-.125-.91-.188-1.672-.96 2.086-2.648 3.125-5.062 3.125-2.012-.012-3.524-.692-4.532-2.047-1.011-1.352-1.511-3.317-1.5-5.89Zm5.453 3.094c-.012 1.261.238 2.148.75 2.656.519.512 1.207.766 2.062.766.832 0 1.492-.227 1.984-.688.5-.469.786-1.25.86-2.344v-8.031H55.29c-1.262 0-2.172.336-2.735 1-.562.656-.843 1.797-.843 3.422ZM87.548 315.603h7.047v4.97h-7.047l-.015 14.327-5.453-.015.047-34.72 14.437.017-.016 4.968h-8.984ZM104.167 326.936c-.012 1.262.238 2.149.75 2.657.508.511 1.192.765 2.047.765.863 0 1.55-.254 2.063-.765.507-.508.769-1.395.78-2.657l.016-18.75c0-1.25-.257-2.128-.765-2.64-.512-.52-1.2-.781-2.063-.781-.855 0-1.539.261-2.047.78-.511.513-.765 1.391-.765 2.641Zm-5.453-18.421c0-2.801.71-4.954 2.14-6.454 1.426-1.507 3.477-2.257 6.157-2.25 2.687 0 4.738.758 6.156 2.266 1.414 1.5 2.125 3.652 2.125 6.453l-.015 18.063c-.012 2.812-.731 4.968-2.157 6.468-1.418 1.5-3.468 2.25-6.156 2.25-2.68-.011-4.73-.765-6.156-2.265-1.418-1.5-2.121-3.656-2.11-6.469ZM130.177 334.944a9.579 9.579 0 0 0-.204-.64 5.591 5.591 0 0 1-.171-.735c-.055-.3-.09-.68-.11-1.14a73.387 73.387 0 0 1-.015-1.75l.015-5.453c0-1.625-.281-2.766-.844-3.422-.562-.664-1.468-1-2.718-1h-1.89l-.017 14.14-5.453-.015.047-34.719 8.235.016c2.843 0 4.894.664 6.156 1.984 1.27 1.324 1.906 3.324 1.906 6v2.734c-.012 3.575-1.203 5.918-3.578 7.032 1.383.562 2.332 1.484 2.844 2.765.508 1.274.765 2.813.765 4.625l-.015 5.36c0 .867.031 1.62.093 2.265.07.649.239 1.297.5 1.953Zm-5.922-29.75-.016 10.657h2.14c1.02 0 1.821-.266 2.407-.797.582-.531.875-1.488.875-2.875v-3.422c0-1.25-.227-2.156-.672-2.719-.45-.562-1.152-.844-2.11-.844ZM144.187 314.89h7.484l-.016 4.953h-7.484l-.016 10.172h9.422v4.953l-14.875-.015.047-34.719 14.875.016-.015 4.968h-9.422ZM162.417 315.694h7.047v4.968h-7.047l-.015 14.328-5.453-.015.046-34.719 14.438.016-.016 4.968h-8.984ZM185.411 335.01a9.579 9.579 0 0 0-.203-.64 5.591 5.591 0 0 1-.172-.734c-.055-.3-.09-.68-.11-1.14a73.387 73.387 0 0 1-.015-1.75l.016-5.454c0-1.625-.282-2.765-.844-3.422-.563-.664-1.469-1-2.719-1h-1.89l-.016 14.14-5.453-.015.047-34.718 8.234.015c2.844 0 4.895.664 6.156 1.985 1.27 1.324 1.906 3.324 1.906 6v2.734c-.011 3.574-1.203 5.918-3.578 7.031 1.383.563 2.332 1.485 2.844 2.766.508 1.273.766 2.812.766 4.625l-.016 5.36c0 .866.031 1.62.094 2.265.07.648.238 1.297.5 1.953Zm-5.922-29.75-.016 10.657h2.141c1.02 0 1.82-.265 2.406-.797.582-.53.875-1.488.875-2.875v-3.422c0-1.25-.226-2.156-.672-2.718-.449-.563-1.152-.844-2.109-.844ZM198.968 327.05c-.012 1.262.238 2.149.75 2.657.508.512 1.191.765 2.047.765.863 0 1.55-.253 2.062-.765.508-.508.77-1.395.782-2.656l.015-18.75c0-1.25-.258-2.13-.765-2.641-.512-.52-1.2-.781-2.063-.781-.855 0-1.539.261-2.047.78-.511.513-.765 1.392-.765 2.642Zm-5.453-18.421c0-2.801.71-4.953 2.14-6.453 1.426-1.508 3.477-2.258 6.157-2.25 2.687 0 4.738.757 6.156 2.265 1.414 1.5 2.125 3.653 2.125 6.453l-.016 18.063c-.011 2.812-.73 4.969-2.156 6.469-1.418 1.5-3.469 2.25-6.156 2.25-2.68-.012-4.73-.766-6.156-2.266-1.418-1.5-2.121-3.656-2.11-6.469ZM218.462 309.918l-.031 25.14-4.907-.015.047-34.719 6.844.016 5.562 20.781.032-20.781h4.875l-.047 34.719h-5.61ZM233.196 300.35l16.875.015-.016 4.97h-5.703l-.031 29.75-5.469-.017.031-29.75h-5.703ZM101.47 390.967v4.61c-.012 2.812-.704 4.968-2.079 6.468-1.367 1.5-3.387 2.25-6.062 2.25-2.68-.012-4.704-.765-6.079-2.265s-2.058-3.657-2.046-6.47l.015-18.062c0-2.8.688-4.953 2.063-6.453 1.383-1.508 3.414-2.258 6.093-2.25 2.676 0 4.696.758 6.063 2.266 1.363 1.5 2.047 3.652 2.047 6.453v3.375h-5.156v-3.719c0-1.25-.258-2.129-.766-2.64-.512-.52-1.2-.782-2.063-.782-.855 0-1.539.262-2.046.782-.512.511-.766 1.39-.766 2.64l-.016 18.75c-.011 1.262.239 2.14.75 2.64.508.493 1.192.735 2.047.735.864 0 1.551-.242 2.063-.734.508-.5.77-1.38.781-2.64v-4.954ZM110.233 403.928l-5.453-.016.047-34.719 5.453.016-.016 14.875h6.203l.016-14.875h5.547l-.047 34.719h-5.547l.016-14.875h-6.203ZM143.608 403.953h-5.5l-.954-6.297-6.687-.015-.953 6.297h-5l5.594-34.72 7.984.016Zm-12.438-11.015h5.266l-2.625-17.547ZM157.537 403.977a9.579 9.579 0 0 0-.203-.64 5.591 5.591 0 0 1-.172-.735c-.054-.3-.09-.68-.109-1.14a73.387 73.387 0 0 1-.016-1.75l.016-5.453c0-1.625-.281-2.766-.844-3.422-.562-.664-1.468-1-2.718-1H151.6l-.016 14.14-5.453-.015.047-34.719 8.234.016c2.844 0 4.895.664 6.157 1.984 1.27 1.324 1.906 3.324 1.906 6v2.734c-.012 3.575-1.203 5.918-3.578 7.032 1.383.562 2.332 1.484 2.844 2.765.507 1.274.765 2.813.765 4.625l-.015 5.36c0 .867.03 1.62.093 2.265.07.649.239 1.297.5 1.953Zm-5.921-29.75-.016 10.657h2.14c1.02 0 1.82-.266 2.407-.797.582-.531.875-1.488.875-2.875v-3.422c0-1.25-.227-2.156-.672-2.719-.45-.562-1.152-.844-2.11-.844ZM166.11 369.267l5.453.016-.047 34.718-5.453-.015ZM173.937 369.278l16.875.016-.016 4.969h-5.703l-.031 29.75-5.469-.016.031-29.75h-5.703ZM198.26 392.534 191.4 369.3h5.704l4.125 15.843 4.203-15.828h5.203l-6.922 23.219-.016 11.5h-5.453Zm0 0"/><g clip-path="url(#aW)"><g clip-path="url(#aX)"><g clip-path="url(#aY)"><path fill="#0082c8" d="m12.832 64.785-3.738-3.062 2.652-3.239 3.738 3.067Zm0 0"/></g></g></g><g clip-path="url(#aZ)"><g clip-path="url(#ba)"><g clip-path="url(#bb)"><path fill="#f4bb27" d="m56.613 550.477 7.157-3.43 2.968 6.2-7.156 3.429Zm0 0"/></g></g></g><path fill="#8b5aa5" d="M122.235 555.344a6.312 6.312 0 0 0-.093-.312 3.717 3.717 0 0 1-.094-.344 4.543 4.543 0 0 1-.047-.547V550.719c0-.77-.137-1.312-.406-1.625-.274-.32-.703-.484-1.297-.484h-.89v6.734h-2.61v-16.531h3.922c1.351 0 2.332.32 2.937.953.613.625.922 1.578.922 2.86v1.296c0 1.7-.57 2.813-1.703 3.344.656.273 1.102.71 1.344 1.312.25.606.375 1.34.375 2.204v2.562c0 .406.015.766.047 1.078.03.305.109.61.234.922Zm-2.828-14.172v5.078h1.016c.476 0 .851-.125 1.125-.375.281-.25.422-.707.422-1.375v-1.625c0-.593-.106-1.023-.313-1.297-.21-.27-.543-.406-1-.406ZM130.566 538.813v12.75c0 .605.117 1.027.36 1.265.25.23.577.344.984.344.414 0 .742-.113.984-.344.238-.238.36-.66.36-1.265v-12.75h2.452v12.594c0 1.336-.328 2.359-.984 3.078-.648.718-1.605 1.078-2.875 1.078-1.281 0-2.25-.36-2.906-1.078-.649-.719-.969-1.742-.969-3.078v-12.594ZM141.599 543.375v11.97h-2.344v-16.532h3.25l2.672 9.89v-9.89h2.312v16.531h-2.656ZM153.472 543.375v11.97h-2.343v-16.532h3.25l2.672 9.89v-9.89h2.312v16.531h-2.656ZM163.018 538.813h2.61v16.531h-2.61ZM171.625 543.375v11.97h-2.343v-16.532h3.25l2.672 9.89v-9.89h2.312v16.531h-2.656ZM185.077 546.141h3.625v5.234c0 1.344-.328 2.375-.984 3.094-.649.711-1.606 1.063-2.875 1.063-1.281 0-2.25-.352-2.906-1.063-.649-.719-.97-1.75-.97-3.094v-8.593c0-1.332.321-2.36.97-3.079.656-.718 1.625-1.078 2.906-1.078 1.27 0 2.226.36 2.875 1.078.656.72.984 1.747.984 3.079v1.609h-2.453v-1.766c0-.601-.125-1.023-.375-1.265-.242-.25-.562-.375-.969-.375-.406 0-.734.125-.984.375-.242.242-.36.664-.36 1.265v8.922c0 .594.118 1.012.36 1.25.25.23.578.344.984.344.407 0 .727-.113.97-.344.25-.238.374-.656.374-1.25V548.5h-1.172ZM196.874 538.813h8.032v2.36h-2.719v14.171h-2.594v-14.172h-2.719ZM210.213 551.547c0 .594.117 1.016.36 1.266.25.242.577.36.984.36.406 0 .726-.118.968-.36.25-.25.375-.672.375-1.266v-8.922c0-.601-.125-1.023-.375-1.265-.242-.25-.562-.375-.968-.375-.407 0-.735.125-.985.375-.242.242-.36.664-.36 1.265Zm-2.594-8.765c0-1.332.336-2.36 1.016-3.079.676-.718 1.648-1.078 2.922-1.078 1.28 0 2.257.36 2.937 1.078.676.72 1.016 1.747 1.016 3.079v8.593c0 1.344-.34 2.375-1.016 3.094-.68.711-1.656 1.063-2.937 1.063-1.274 0-2.246-.352-2.922-1.063-.68-.719-1.016-1.75-1.016-3.094ZM222.87 546.141h3.625v5.234c0 1.344-.328 2.375-.984 3.094-.648.711-1.605 1.063-2.875 1.063-1.281 0-2.25-.352-2.906-1.063-.649-.719-.969-1.75-.969-3.094v-8.593c0-1.332.32-2.36.969-3.079.656-.718 1.625-1.078 2.906-1.078 1.27 0 2.227.36 2.875 1.078.656.72.984 1.747.984 3.079v1.609h-2.453v-1.766c0-.601-.125-1.023-.375-1.265-.242-.25-.562-.375-.968-.375-.407 0-.735.125-.985.375-.242.242-.36.664-.36 1.265v8.922c0 .594.118 1.012.36 1.25.25.23.578.344.985.344.406 0 .726-.113.968-.344.25-.238.375-.656.375-1.25V548.5h-1.172ZM232.574 545.782h3.562v2.359h-3.562v4.844h4.484v2.36h-7.093v-16.532h7.093v2.36h-4.484ZM239.696 538.813h8.03v2.36h-2.718v14.171h-2.594v-14.172h-2.718ZM253.253 555.344h-2.61v-16.531h2.61v7.094h2.953v-7.094h2.64v16.531h-2.64v-7.078h-2.953ZM265.126 545.782h3.563v2.359h-3.563v4.844h4.485v2.36h-7.094v-16.532h7.094v2.36h-4.485ZM278.436 555.344a6.312 6.312 0 0 0-.094-.312 3.717 3.717 0 0 1-.094-.344 4.543 4.543 0 0 1-.047-.547V550.719c0-.77-.137-1.312-.406-1.625-.274-.32-.703-.484-1.297-.484h-.89v6.734h-2.61v-16.531h3.922c1.351 0 2.332.32 2.937.953.614.625.922 1.578.922 2.86v1.296c0 1.7-.57 2.813-1.703 3.344.656.273 1.102.71 1.344 1.312.25.606.375 1.34.375 2.204v2.562c0 .406.016.766.047 1.078.031.305.11.61.234.922Zm-2.829-14.172v5.078h1.016c.477 0 .852-.125 1.125-.375.281-.25.422-.707.422-1.375v-1.625c0-.593-.106-1.023-.313-1.297-.21-.27-.543-.406-1-.406Zm0 0"/></svg>
